<svg width="637" height="480" viewBox="0 0 637 480" fill="none" xmlns="http://www.w3.org/2000/svg">
<g clip-path="url(#clip0_31_7054)">
<g opacity="0.2">
<path d="M146.149 120.204C138.31 116.513 125.345 122.515 121.21 131.298C113.318 148.062 138.842 172.342 148.123 169.736C158.495 166.824 160.542 126.981 146.148 120.204H146.149Z" stroke="#0F31AC" stroke-width="6" stroke-miterlimit="10" stroke-linecap="round" stroke-linejoin="round" stroke-dasharray="9 9"/>
<path d="M106.937 158.176C104.138 156.556 74.5025 139.392 57.7298 152.976C45.9526 162.514 45.8406 182.903 54.6905 194.361C72.2188 217.055 126.571 206.881 132.211 190.641C136.008 179.706 118.178 164.687 106.937 158.176Z" stroke="#0F31AC" stroke-width="6" stroke-miterlimit="10" stroke-linecap="round" stroke-linejoin="round" stroke-dasharray="10 10"/>
<path d="M145.071 438.417C217.21 420.49 299.178 402.239 426.46 405.347C497.643 407.086 513.774 384.969 567.722 357.471C615.808 332.963 639.425 284.227 624.92 256.607C610.276 228.722 565.674 239.824 529.146 198.315C512.511 179.41 515.438 166.16 505.834 145.196C475.42 78.8144 361.428 26.9297 305.217 54.3886C230.955 90.664 294.442 247.405 211.43 290.222C158.922 317.308 119.234 265.312 67.3877 305.004C41.6984 324.671 10.2793 352.259 7.84953 382.213C7.84953 382.213 4.44735 455.448 145.071 438.417Z" stroke="#0F31AC" stroke-width="6" stroke-miterlimit="10" stroke-linecap="round" stroke-linejoin="round" stroke-dasharray="11 11"/>
<path d="M543.63 356.85C543.63 356.85 530.563 374.197 517.493 397.997C505.71 419.459 496.75 448.378 494.771 472.523C489.221 472.261 483.126 472.014 476.535 471.779C437.504 470.393 381.155 469.524 318.5 469.524C247.269 469.524 184.192 470.648 145.442 472.377C144.108 472.437 142.803 472.496 141.527 472.557C93.1492 412.523 -4.26795 307.932 85.3823 264.905C85.3823 264.905 91.95 262.902 101.796 258.6C132.96 244.982 197.001 208.338 189.877 139.246C189.877 139.246 187.451 126.353 187.451 108.413C187.451 66.4649 200.715 -3.06856 289.268 0.104955C342.893 2.0295 392.28 29.3507 422.139 73.0816C451.426 115.974 498.254 168.747 536.389 138.618C545.193 131.661 556.832 129.084 567.699 132.142C595.149 139.862 626.333 179.824 543.63 356.85Z" fill="#ACBCF8"/>
</g>
<path opacity="0.15" d="M614.841 474.859C614.841 477.698 482.165 480 318.5 480C226.155 480 143.675 479.267 89.3262 478.118C76.8076 477.852 65.7846 477.567 56.4754 477.262C50.3443 477.062 44.9576 476.852 40.3774 476.636C28.5945 476.084 22.1587 475.485 22.1587 474.859C22.1587 474.063 32.6034 473.308 51.2459 472.636C58.881 472.36 67.8882 472.098 78.1175 471.854C131.941 470.561 219.557 469.72 318.499 469.72C405.529 469.72 483.798 470.37 538.013 471.407C585.75 472.32 614.84 473.532 614.84 474.86L614.841 474.859Z" fill="#040C2B"/>
<path d="M413.822 97.3709L394.41 133.794C393.674 135.174 391.961 135.696 390.584 134.959L358.415 117.772C357.037 117.035 356.515 115.321 357.251 113.941L380.237 70.8148C380.972 69.4352 382.685 68.9129 384.063 69.6495L409.368 83.1696L409.447 83.4237L413.82 97.3724L413.822 97.3709Z" fill="#E3E9F7"/>
<path opacity="0.1" d="M413.822 97.3711L406.662 93.5462C405.54 92.9472 405.115 91.5506 405.715 90.428L409.447 83.4238L413.821 97.3725L413.822 97.3711Z" fill="black"/>
<path d="M382.372 104.485L382.981 103.341C383.509 102.352 384.178 101.604 384.99 101.098C385.802 100.592 386.989 100.227 388.55 100.001C390.042 99.8054 391.09 99.5585 391.692 99.2576C392.295 98.9581 392.755 98.5082 393.074 97.9107C393.432 97.2408 393.456 96.5992 393.15 95.9847C392.842 95.3701 392.247 94.8266 391.361 94.3539C389.817 93.5293 387.788 93.0936 385.273 93.0482L385.395 88.7648C388.377 88.7024 391.154 89.3595 393.728 90.7348C395.849 91.8674 397.262 93.2781 397.968 94.9657C398.675 96.6546 398.575 98.3478 397.669 100.048C397.065 101.182 396.285 102.024 395.331 102.573C394.377 103.122 392.906 103.528 390.915 103.788C389.538 103.992 388.616 104.214 388.15 104.455C387.683 104.696 387.286 105.126 386.958 105.744L386.463 106.67L382.372 104.485ZM379.06 109.508C379.521 108.642 380.102 108.111 380.801 107.915C381.5 107.719 382.292 107.858 383.177 108.331C384.032 108.788 384.572 109.367 384.799 110.071C385.025 110.775 384.913 111.549 384.463 112.394C384.029 113.209 383.45 113.723 382.728 113.94C382.005 114.156 381.221 114.038 380.377 113.588C379.512 113.127 378.965 112.539 378.737 111.828C378.507 111.117 378.617 110.344 379.06 109.509V109.508Z" fill="#CDD7FB"/>
<path d="M149.387 290.807L126.44 326.062C125.571 327.397 123.785 327.775 122.451 326.903L91.3136 306.586C89.9797 305.716 89.6026 303.928 90.473 302.592L117.645 260.85C118.514 259.514 120.3 259.137 121.634 260.008L146.128 275.991L146.187 276.255L149.389 290.807H149.387Z" fill="#E3E9F7"/>
<path opacity="0.1" d="M149.388 290.806L142.457 286.284C141.371 285.576 141.065 284.12 141.772 283.033L146.185 276.253L149.388 290.805V290.806Z" fill="black"/>
<path d="M124.465 307.266L120.313 304.557L120.552 295.462L112.337 299.353L108.443 296.813L119.895 291.671L119.981 279.884L123.991 282.501L123.665 291.088L131.31 287.275L135.227 289.832L124.303 294.832L124.463 307.266H124.465Z" fill="#CDD7FB"/>
<path d="M548.282 179.161L563.336 218.45C563.906 219.939 563.163 221.608 561.678 222.178L526.978 235.505C525.491 236.076 523.824 235.332 523.254 233.845L505.43 187.325C504.86 185.836 505.603 184.167 507.088 183.597L534.385 173.112L534.633 173.22L548.283 179.161H548.282Z" fill="#E3E9F7"/>
<path opacity="0.1" d="M548.282 179.161L540.559 182.127C539.348 182.591 537.992 181.987 537.527 180.775L534.632 173.22L548.282 179.161Z" fill="black"/>
<path d="M544.763 213.01L541.825 214.138L537.718 211.867L536.181 216.305L533.426 217.364L535.698 211.244L530.284 208.397L533.122 207.307L536.96 209.493L538.302 205.317L541.073 204.253L538.948 210.113L544.76 213.008L544.763 213.01Z" fill="#CDD7FB"/>
<path d="M543.497 186.611L516.675 196.914C516.355 197.037 515.995 196.877 515.872 196.556C515.748 196.235 515.909 195.875 516.229 195.751L543.051 185.449C543.371 185.325 543.731 185.486 543.855 185.807C543.978 186.127 543.818 186.488 543.497 186.611Z" fill="#CDD7FB"/>
<path d="M544.656 189.514L517.834 199.816C517.513 199.94 517.153 199.779 517.03 199.459C516.907 199.138 517.067 198.777 517.387 198.654L544.209 188.351C544.529 188.228 544.89 188.388 545.013 188.709C545.136 189.03 544.976 189.39 544.656 189.514Z" fill="#CDD7FB"/>
<path d="M545.814 192.418L518.992 202.72C518.672 202.844 518.311 202.684 518.188 202.363C518.065 202.042 518.225 201.682 518.545 201.558L545.367 191.256C545.688 191.132 546.048 191.292 546.171 191.613C546.294 191.934 546.134 192.294 545.814 192.418Z" fill="#CDD7FB"/>
<path d="M546.972 195.32L520.15 205.623C519.83 205.746 519.47 205.586 519.346 205.265C519.223 204.944 519.383 204.584 519.704 204.46L546.525 194.158C546.846 194.034 547.206 194.195 547.329 194.516C547.453 194.836 547.292 195.197 546.972 195.32Z" fill="#CDD7FB"/>
<path d="M547.912 198.319L521.09 208.622C520.77 208.745 520.41 208.585 520.286 208.264C520.163 207.943 520.323 207.583 520.643 207.459L547.465 197.157C547.786 197.033 548.146 197.194 548.269 197.515C548.393 197.835 548.232 198.196 547.912 198.319Z" fill="#CDD7FB"/>
<path d="M155.579 393.918L172.509 432.434C173.15 433.893 172.489 435.596 171.032 436.239L137.015 451.228C135.557 451.869 133.856 451.208 133.214 449.749L113.168 404.144C112.527 402.685 113.188 400.982 114.645 400.339L141.405 388.548L141.659 388.643L155.579 393.917V393.918Z" fill="#E3E9F7"/>
<path opacity="0.1" d="M155.579 393.919L148.008 397.256C146.822 397.778 145.437 397.239 144.915 396.052L141.659 388.646L155.579 393.921V393.919Z" fill="black"/>
<path d="M153.697 427.898L150.816 429.167L146.605 427.097L145.284 431.605L142.583 432.796L144.558 426.574L139.014 423.992L141.796 422.766L145.734 424.764L146.874 420.529L149.592 419.331L147.752 425.288L153.697 427.899V427.898Z" fill="#CDD7FB"/>
<path d="M151.159 401.591L124.865 413.177C124.55 413.316 124.183 413.173 124.045 412.858C123.906 412.542 124.05 412.175 124.364 412.037L150.659 400.452C150.974 400.313 151.341 400.456 151.478 400.771C151.617 401.086 151.474 401.454 151.159 401.591Z" fill="#CDD7FB"/>
<path d="M152.457 404.436L126.162 416.022C125.847 416.161 125.48 416.017 125.343 415.702C125.204 415.387 125.347 415.02 125.662 414.882L151.956 403.296C152.271 403.157 152.638 403.301 152.776 403.616C152.914 403.931 152.771 404.298 152.457 404.436Z" fill="#CDD7FB"/>
<path d="M153.753 407.279L127.459 418.864C127.144 419.003 126.777 418.86 126.64 418.545C126.501 418.23 126.644 417.862 126.958 417.725L153.253 406.139C153.568 406 153.935 406.143 154.072 406.458C154.211 406.774 154.068 407.141 153.753 407.279Z" fill="#CDD7FB"/>
<path d="M155.051 410.122L128.756 421.708C128.442 421.847 128.074 421.704 127.937 421.389C127.798 421.074 127.941 420.706 128.256 420.568L154.55 408.983C154.865 408.844 155.232 408.987 155.37 409.302C155.509 409.617 155.366 409.985 155.051 410.122Z" fill="#CDD7FB"/>
<path d="M156.132 413.072L129.838 424.657C129.523 424.796 129.156 424.653 129.018 424.338C128.88 424.023 129.023 423.655 129.337 423.518L155.632 411.932C155.947 411.793 156.314 411.936 156.451 412.251C156.59 412.566 156.447 412.934 156.132 413.072Z" fill="#CDD7FB"/>
<path d="M273.096 115.881L290.026 154.396C290.667 155.855 290.006 157.559 288.549 158.201L254.532 173.191C253.074 173.832 251.373 173.171 250.731 171.712L230.685 126.107C230.044 124.648 230.705 122.945 232.162 122.302L258.922 110.511L259.176 110.606L273.096 115.88V115.881Z" fill="#E3E9F7"/>
<path opacity="0.1" d="M273.096 115.881L265.525 119.218C264.339 119.74 262.954 119.201 262.432 118.014L259.176 110.608L273.096 115.882V115.881Z" fill="black"/>
<path d="M271.214 149.861L268.333 151.13L264.122 149.06L262.801 153.568L260.1 154.759L262.075 148.537L256.531 145.955L259.313 144.729L263.251 146.727L264.391 142.492L267.109 141.294L265.269 147.251L271.214 149.862V149.861Z" fill="#CDD7FB"/>
<path d="M268.676 123.554L242.382 135.14C242.067 135.279 241.7 135.136 241.562 134.82C241.423 134.505 241.567 134.138 241.881 134L268.176 122.414C268.491 122.275 268.858 122.419 268.995 122.734C269.134 123.049 268.991 123.416 268.676 123.554Z" fill="#CDD7FB"/>
<path d="M269.974 126.398L243.679 137.984C243.364 138.123 242.997 137.979 242.86 137.664C242.721 137.349 242.864 136.982 243.179 136.844L269.473 125.258C269.788 125.119 270.155 125.262 270.293 125.578C270.432 125.893 270.288 126.26 269.974 126.398Z" fill="#CDD7FB"/>
<path d="M271.271 129.241L244.976 140.826C244.661 140.965 244.294 140.822 244.157 140.507C244.018 140.192 244.161 139.824 244.476 139.687L270.77 128.101C271.085 127.962 271.452 128.105 271.59 128.42C271.728 128.735 271.585 129.103 271.271 129.241Z" fill="#CDD7FB"/>
<path d="M272.567 132.085L246.273 143.671C245.958 143.81 245.591 143.667 245.453 143.352C245.315 143.037 245.458 142.669 245.772 142.531L272.067 130.946C272.382 130.807 272.749 130.95 272.886 131.265C273.025 131.58 272.882 131.948 272.567 132.085Z" fill="#CDD7FB"/>
<path d="M273.649 135.035L247.355 146.62C247.04 146.759 246.673 146.616 246.536 146.301C246.397 145.986 246.54 145.618 246.854 145.481L273.149 133.895C273.464 133.756 273.831 133.899 273.968 134.214C274.107 134.529 273.964 134.897 273.649 135.035Z" fill="#CDD7FB"/>
<path d="M449.988 223.375H187.013V414.43H449.988V223.375Z" fill="#E3E9F7"/>
<path d="M449.985 199.392H187.11V223.429H449.985V199.392Z" fill="#ACBCF8"/>
<path d="M199.269 214.134C201.5 214.134 203.309 212.412 203.309 210.288C203.309 208.163 201.5 206.441 199.269 206.441C197.038 206.441 195.229 208.163 195.229 210.288C195.229 212.412 197.038 214.134 199.269 214.134Z" fill="#E3E9F7"/>
<path d="M211.052 214.134C213.284 214.134 215.092 212.412 215.092 210.288C215.092 208.163 213.284 206.441 211.052 206.441C208.821 206.441 207.012 208.163 207.012 210.288C207.012 212.412 208.821 214.134 211.052 214.134Z" fill="#E3E9F7"/>
<path d="M222.835 214.134C225.066 214.134 226.875 212.412 226.875 210.288C226.875 208.163 225.066 206.441 222.835 206.441C220.604 206.441 218.795 208.163 218.795 210.288C218.795 212.412 220.604 214.134 222.835 214.134Z" fill="#E3E9F7"/>
<path d="M442.076 233.434H194.926V404.373H442.076V233.434Z" fill="#F4F6FC"/>
<path d="M356.84 275.464V350.622C356.84 353.469 354.535 355.777 351.691 355.777H285.312C282.468 355.777 280.163 353.469 280.163 350.622V261.631C280.163 258.784 282.468 256.477 285.312 256.477H337.53L337.874 256.816L356.84 275.465V275.464Z" fill="#ACBCF8"/>
<path opacity="0.15" d="M356.84 275.464H342.066C339.751 275.464 337.874 273.585 337.874 271.267V256.814L356.84 275.464Z" fill="black"/>
<path d="M336.913 318.824C336.33 318.824 335.82 318.448 335.634 317.896C335.148 316.46 333.559 315.042 331.111 313.901C327.765 312.341 323.286 311.481 318.5 311.481C313.714 311.481 309.235 312.34 305.889 313.901C303.441 315.042 301.852 316.46 301.366 317.896C301.179 318.448 300.668 318.824 300.087 318.824C299.169 318.824 298.516 317.924 298.806 317.052C299.526 314.883 301.576 312.94 304.752 311.458C308.447 309.735 313.329 308.787 318.499 308.787C323.668 308.787 328.551 309.735 332.245 311.458C335.422 312.94 337.471 314.883 338.192 317.052C338.481 317.924 337.829 318.824 336.91 318.824H336.913Z" fill="white"/>
<path d="M308.61 304.609C311.694 304.609 314.194 302.106 314.194 299.018C314.194 295.931 311.694 293.428 308.61 293.428C305.526 293.428 303.026 295.931 303.026 299.018C303.026 302.106 305.526 304.609 308.61 304.609Z" fill="white"/>
<path d="M328.392 304.609C331.476 304.609 333.976 302.106 333.976 299.018C333.976 295.931 331.476 293.428 328.392 293.428C325.308 293.428 322.808 295.931 322.808 299.018C322.808 302.106 325.308 304.609 328.392 304.609Z" fill="white"/>
<path d="M297.009 381.199H294.435L290.279 373.962H290.221C290.303 375.241 290.345 376.152 290.345 376.697V381.199H288.535V371.633H291.091L295.242 378.797H295.287C295.222 377.554 295.189 376.676 295.189 376.16V371.633H297.012V381.199H297.009Z" fill="black"/>
<path d="M308.086 376.404C308.086 377.988 307.694 379.204 306.91 380.055C306.126 380.907 305.002 381.331 303.537 381.331C302.073 381.331 300.949 380.906 300.165 380.055C299.381 379.205 298.988 377.983 298.988 376.391C298.988 374.798 299.381 373.584 300.168 372.743C300.954 371.903 302.081 371.484 303.55 371.484C305.019 371.484 306.141 371.907 306.92 372.753C307.698 373.599 308.086 374.817 308.086 376.405V376.404ZM301.113 376.404C301.113 377.472 301.316 378.277 301.721 378.818C302.127 379.359 302.732 379.63 303.539 379.63C305.155 379.63 305.963 378.554 305.963 376.404C305.963 374.253 305.159 373.172 303.551 373.172C302.745 373.172 302.138 373.443 301.728 373.987C301.319 374.53 301.115 375.335 301.115 376.404H301.113Z" fill="black"/>
<path d="M321.471 376.324C321.471 377.899 321.023 379.104 320.129 379.942C319.233 380.779 317.94 381.198 316.25 381.198H313.544V371.632H316.544C318.103 371.632 319.315 372.043 320.177 372.868C321.04 373.693 321.471 374.844 321.471 376.323V376.324ZM319.367 376.376C319.367 374.321 318.461 373.295 316.648 373.295H315.57V379.524H316.439C318.391 379.524 319.366 378.476 319.366 376.376H319.367Z" fill="black"/>
<path d="M329.3 381.199L328.607 378.923H325.124L324.431 381.199H322.248L325.62 371.594H328.097L331.482 381.199H329.299H329.3ZM328.124 377.221C327.483 375.158 327.123 373.991 327.042 373.721C326.961 373.45 326.903 373.237 326.869 373.08C326.726 373.638 326.314 375.018 325.635 377.221H328.124Z" fill="black"/>
<path d="M336.371 381.199H334.346V373.32H331.751V371.633H338.967V373.32H336.373V381.199H336.371Z" fill="black"/>
<path d="M346.286 381.199L345.593 378.923H342.11L341.416 381.199H339.233L342.606 371.594H345.082L348.468 381.199H346.284H346.286ZM345.109 377.221C344.468 375.158 344.108 373.991 344.028 373.721C343.947 373.45 343.889 373.237 343.855 373.08C343.712 373.638 343.299 375.018 342.62 377.221H345.111H345.109Z" fill="black"/>
<path d="M494.023 308.147H486.037C480.024 308.147 475.149 313.028 475.149 319.048C475.149 325.069 480.024 329.949 486.037 329.949H494.023C500.036 329.949 504.911 325.069 504.911 319.048C504.911 313.028 500.036 308.147 494.023 308.147Z" fill="white"/>
<path d="M486.577 328.191H493.484C493.484 328.191 492.866 333.759 486.577 336.525C486.577 336.525 489.884 331.649 486.577 328.191Z" fill="white"/>
<path d="M488.328 321.216V320.556C488.328 319.986 488.45 319.489 488.694 319.066C488.938 318.644 489.383 318.194 490.031 317.719C490.654 317.273 491.065 316.91 491.265 316.63C491.464 316.351 491.564 316.039 491.564 315.694C491.564 315.308 491.421 315.012 491.136 314.811C490.851 314.609 490.453 314.507 489.943 314.507C489.051 314.507 488.036 314.798 486.895 315.381L485.924 313.427C487.248 312.683 488.653 312.312 490.138 312.312C491.362 312.312 492.334 312.605 493.057 313.194C493.779 313.783 494.14 314.568 494.14 315.549C494.14 316.203 493.991 316.768 493.695 317.244C493.397 317.719 492.833 318.254 492.002 318.849C491.433 319.272 491.071 319.592 490.919 319.812C490.768 320.032 490.693 320.321 490.693 320.678V321.213H488.331L488.328 321.216ZM488.043 324.268C488.043 323.768 488.176 323.39 488.444 323.135C488.712 322.88 489.101 322.752 489.611 322.752C490.121 322.752 490.486 322.882 490.756 323.145C491.027 323.406 491.162 323.781 491.162 324.269C491.162 324.757 491.026 325.109 490.752 325.38C490.479 325.651 490.099 325.786 489.611 325.786C489.123 325.786 488.726 325.654 488.453 325.389C488.179 325.125 488.043 324.752 488.043 324.269V324.268Z" fill="#ACBCF8"/>
<path opacity="0.67" d="M464.427 466.727L468.161 468.181L467.072 473.457L460.691 471.456L464.427 466.727Z" fill="#050505"/>
<path d="M412.371 455.039C412.371 455.039 402.412 453.857 400.233 459.223C400.233 459.223 400.077 472.593 406.301 473.503C406.301 473.503 411.592 474.048 415.017 471.683L434.935 469.41L448.474 468.5L412.371 455.039Z" fill="#040C2B"/>
<path d="M472.207 461.451C472.207 461.451 477.434 469.869 474.341 473.214C473.862 473.732 474.529 474.361 475.537 474.358L496.561 474.319C496.561 474.319 508.544 476.501 510.878 467.316C510.878 467.316 512.278 457.584 497.028 455.947C481.778 454.311 496.872 455.402 496.872 455.402C496.872 455.402 479.131 456.676 472.206 461.45L472.207 461.451Z" fill="#040C2B"/>
<path d="M480.533 461.86L480.475 462.398L479.287 473.501L457.112 471.545L464.411 461.982L464.504 461.858C480.533 462.222 480.533 461.858 480.533 461.858V461.86Z" fill="#DE995F"/>
<path opacity="0.38" d="M480.533 461.86L480.475 462.398L468.783 462.723L464.41 461.982L464.503 461.858C480.532 462.222 480.532 461.858 480.532 461.858L480.533 461.86Z" fill="#050505"/>
<path d="M514.56 442.698L488.738 447.721L454.856 454.311L427.944 448.039L385.448 438.135C383.506 423.525 414.084 431.939 414.084 431.939L433.992 434.174H433.995L445.675 435.486L472.13 439.123L480.533 435.794L490.493 431.848C517.337 429.529 514.56 442.698 514.56 442.698Z" fill="#081956"/>
<path opacity="0.3" d="M488.737 447.722L454.855 454.312L427.944 448.04L420.621 443.67L433.993 434.174H433.995L445.675 435.485L472.13 439.124L480.533 435.795L488.737 447.722Z" fill="black"/>
<path d="M417.041 459.313L453.612 449.764C453.612 449.764 479.756 440.032 484.268 440.579C484.268 440.579 516.637 423.935 514.458 444.307C514.458 444.307 518.193 460.314 460.458 462.769L417.041 459.313Z" fill="#081956"/>
<path opacity="0.13" d="M442.173 452.719L446.219 451.537C449.281 453.581 455.035 455.281 458.824 456.994C463.111 458.933 468.316 460.723 473.296 461.905L463.492 463.087L442.173 452.719Z" fill="black"/>
<path d="M470.495 462.18C470.495 462.18 459.835 470.682 466.994 473.503C466.994 473.503 425.625 468.853 392.533 450.344C390.025 448.942 388.246 447.152 387.41 445.184C384.379 438.046 380.191 421.812 412.838 435.669C412.838 435.669 438.199 444.295 446.555 451.717C448.156 453.137 450.055 454.435 452.259 455.546C457.49 458.184 466.359 462.303 470.494 462.18H470.495Z" fill="#081956"/>
<path d="M445.207 367.787L464.503 367.821L470.727 379.553C470.727 379.553 458.589 397.924 441.16 381.554C441.935 378.917 444.508 375.051 445.283 372.414C446.528 369.686 446.372 369.868 445.205 367.787H445.207Z" fill="#CC8B5B"/>
<path d="M495.273 386.978L490.959 421.57L424.51 420.934C424.51 420.934 429.072 403.318 428.162 400.458C428.107 400.284 428.031 400.165 427.934 400.106L409.57 399.47C409.57 399.47 409.711 396.947 410.31 393.617C411.325 387.998 413.652 380.085 418.83 378.143C419.683 377.824 422.175 376.824 422.175 376.824C422.175 376.824 444.818 370.868 445.285 372.413C445.285 372.413 444.04 390.512 468.628 375.506C468.628 375.506 497.097 382.58 495.273 386.978Z" fill="white"/>
<path d="M481.777 423.3L483.138 434.762L498.479 430.101C501.957 429.045 504.339 427.051 504.768 424.774C505.149 422.748 504.906 419.862 503.096 415.841L499.673 400.654C499.673 400.654 501.307 390.15 493.37 384.238C493.37 384.238 490.491 401.654 485.355 404.565L484.267 419.117L481.777 423.301V423.3Z" fill="white"/>
<path opacity="0.1" d="M438.754 380.918L428.162 400.459C428.107 400.284 428.031 400.165 427.934 400.107L409.57 399.471C409.57 399.471 409.711 396.947 410.31 393.618L428.95 376.188C428.95 376.188 436.887 380.826 438.754 380.918Z" fill="black"/>
<path d="M442.203 369.297C441.75 372.337 441.211 373.271 439.605 378.098L437.116 382.827L430.113 378.098L431.98 376.188L431.046 367.547L433.409 361.759C434.249 359.703 436.333 358.39 438.54 358.628C441.014 358.895 443.431 361.071 442.202 369.297H442.203Z" fill="#DE995F"/>
<path opacity="0.13" d="M423.42 398.652L428.281 401.807L426.767 411.521L439.605 382.645L435.015 381.409L423.42 398.652Z" fill="black"/>
<path d="M429.801 376.188C429.801 376.188 437.738 380.826 439.605 380.917L424.665 408.474C424.665 408.474 415.062 420.383 405.203 411.426C399.13 405.909 401.086 398.556 409.969 394.545C410.093 394.488 410.221 394.433 410.349 394.376L429.801 376.187V376.188Z" fill="white"/>
<path opacity="0.13" d="M445.129 372.141C445.129 372.141 454.364 385.488 466.476 371.538L462.714 366.047L447.386 367.79L445.129 372.14V372.141Z" fill="black"/>
<path d="M441.162 348.903C441.162 348.903 458.903 339.171 466.06 347.721C466.06 347.721 480.844 362.727 457.812 376.188C457.812 376.188 442.873 382.827 441.162 348.903Z" fill="#DE995F"/>
<path d="M443.085 363.088L438.461 355.342C437.399 353.565 436.92 351.686 437.056 349.805C437.485 343.915 441.076 332.605 463.102 337.535C463.102 337.535 482.398 345.993 471.662 356.816L468.082 364.638C468.082 364.638 468.549 350.542 463.102 349.813C463.102 349.813 450.653 352.541 442.56 352.36C442.56 352.36 442.326 362.045 443.083 363.087L443.085 363.088Z" fill="black"/>
<path d="M447.386 361.454C449.706 361.454 451.587 360.354 451.587 358.998C451.587 357.642 449.706 356.543 447.386 356.543C445.065 356.543 443.184 357.642 443.184 358.998C443.184 360.354 445.065 361.454 447.386 361.454Z" stroke="black" stroke-width="2.06" stroke-miterlimit="10"/>
<path d="M460.147 361.09C462.468 361.09 464.349 359.991 464.349 358.635C464.349 357.279 462.468 356.18 460.147 356.18C457.826 356.18 455.945 357.279 455.945 358.635C455.945 359.991 457.826 361.09 460.147 361.09Z" stroke="black" stroke-width="2.06" stroke-miterlimit="10"/>
<path d="M451.542 358.636C451.542 358.636 453.456 359.909 455.945 358.636" stroke="black" stroke-width="2.06" stroke-miterlimit="10"/>
<path d="M443.184 358.998L441.083 357.589" stroke="black" stroke-width="2.06" stroke-miterlimit="10"/>
<path d="M464.348 358.635L469.639 357.998" stroke="black" stroke-width="2.06" stroke-miterlimit="10"/>
<path opacity="0.13" d="M483.1 422.889C483.1 422.889 487.768 419.251 493.37 418.886C493.37 418.886 492.126 418.067 488.702 418.886C488.702 418.886 491.815 416.976 495.393 417.704C495.393 417.704 487.924 414.885 483.1 422.889Z" fill="black"/>
<path d="M421.36 411.637L483.721 410.86C484.621 410.848 485.357 411.576 485.357 412.477V438.445C485.357 439.332 484.644 440.053 483.759 440.063L422.643 440.744C421.774 440.754 421.053 440.073 421.012 439.204L419.767 413.332C419.723 412.416 420.446 411.647 421.36 411.636V411.637Z" fill="#829CF8"/>
<path opacity="0.13" d="M422.566 439.261C422.566 439.261 412.142 432.749 393.154 430.804C393.154 430.804 402.646 430.166 423.5 437.352L422.566 439.262V439.261Z" fill="black"/>
<path opacity="0.13" d="M485.435 440.078C485.435 440.078 504.274 430.424 511.778 435.591C511.778 435.591 507.844 429.891 483.1 439.531L485.435 440.076V440.078Z" fill="black"/>
<path opacity="0.13" d="M485.279 404.518C485.279 404.518 495.706 396.697 495.395 392.696C495.395 392.696 492.594 396.242 491.816 396.88C491.816 396.88 495.706 392.06 494.15 390.149C494.15 390.149 491.979 396.204 490.341 396.315L485.281 404.52L485.279 404.518Z" fill="black"/>
<path opacity="0.13" d="M485.201 404.473C485.201 404.473 492.982 389.194 491.426 388.375C491.426 388.375 491.114 391.377 485.201 404.473Z" fill="black"/>
<path d="M320.439 148.266C288.369 143.849 271.598 118.998 276.897 79.9272C282.371 40.7964 305.224 21.4884 337.295 25.9062C369.365 30.324 386.206 55.2677 380.837 94.2454C375.434 133.47 352.509 152.684 320.439 148.266ZM309.296 84.3903C305.736 109.624 312.404 121.435 323.905 123.104C335.429 124.607 345.042 115.039 348.438 89.7822C351.765 65.0193 345.329 52.7371 333.828 51.069C322.305 49.5653 312.87 59.6613 309.296 84.3903Z" fill="#A0AEE1"/>
<path d="M275.646 187.24C248.043 194.589 225.917 180.093 216.894 146.493C207.994 112.785 220.001 89.2747 247.603 81.9248C275.206 74.5749 297.422 89.1237 306.355 122.672C315.345 156.432 303.249 179.89 275.646 187.24ZM244.78 139.068C250.495 160.815 259.952 168.15 269.879 165.582C279.769 162.873 284.326 151.806 278.469 130.097C272.726 108.812 263.298 101.015 253.37 103.582C243.48 106.291 239.249 117.726 244.78 139.068Z" fill="#B6C1E9"/>
<path d="M525.85 256.385L520.392 235.888L535.028 231.991L536.189 236.35L526.932 238.815L527.919 242.524L536.412 240.263L537.573 244.622L529.08 246.884L530.068 250.593L539.297 248.135L540.458 252.495L525.85 256.385ZM543.317 251.733L537.859 231.237L546.579 228.915C551.165 227.694 554.86 229.499 556.013 233.831C556.767 236.662 555.996 239.004 554.067 240.64L560.303 247.21L554.443 248.771L548.989 242.917L546.879 243.478L548.696 250.301L543.317 251.733ZM545.756 239.26L547.851 238.702C549.875 238.163 550.868 237.111 550.379 235.331C549.911 233.515 548.507 233.025 546.479 233.55L544.384 234.108L545.756 239.26ZM562.059 246.743L556.601 226.246L565.321 223.925C569.907 222.703 573.601 224.509 574.755 228.84C575.508 231.671 574.738 234.014 572.808 235.649L579.045 242.22L573.185 243.78L567.73 237.926L565.621 238.488L567.438 245.311L562.059 246.743ZM564.498 234.27L566.593 233.712C568.617 233.173 569.61 232.12 569.121 230.34C568.653 228.525 567.249 228.035 565.221 228.559L563.126 229.117L564.498 234.27ZM597.775 226.258C599.592 233.08 596.206 237.954 590.671 239.428C585.08 240.916 579.749 238.319 577.93 231.542C576.127 224.715 579.471 219.853 585.062 218.365C590.597 216.891 595.959 219.435 597.775 226.258ZM583.479 230.064C584.481 233.83 586.585 235.468 589.42 234.728C592.219 233.968 593.243 231.497 592.227 227.735C591.234 223.952 589.117 222.318 586.314 223.064C583.483 223.818 582.472 226.285 583.479 230.064ZM603.137 235.805L597.679 215.308L606.399 212.986C610.985 211.765 614.68 213.571 615.833 217.902C616.587 220.733 615.816 223.076 613.887 224.711L620.123 231.282L614.263 232.842L608.808 226.988L606.699 227.55L608.516 234.373L603.137 235.805ZM605.576 223.332L607.671 222.774C609.695 222.235 610.688 221.182 610.199 219.402C609.731 217.587 608.327 217.096 606.299 217.621L604.204 218.179L605.576 223.332Z" fill="#B6C1E9"/>
<path d="M187.063 162.758C158.147 162.758 137.317 146.146 137.141 122.68H169.661C169.924 131.557 177.659 137.357 187.063 137.27C197.961 137.357 205.608 129.799 205.52 118.461C205.608 106.947 197.961 99.3887 187.063 99.4766C178.362 99.3887 172.737 103.08 169.661 109.496H139.954L145.403 33.7344H229.954V60.4531H173L170.364 89.1055H171.067C175.198 81.6348 185.481 76.0977 198.137 76.0977C220.989 76.0977 237.952 93.2363 237.864 117.406C237.952 143.949 217.737 162.758 187.063 162.758Z" fill="#6C7AAD"/>
</g>
<defs>
<clipPath id="clip0_31_7054">
<rect width="637" height="480" fill="white" transform="translate(0.000488281)"/>
</clipPath>
</defs>
</svg>
