<svg width="1096" height="428" viewBox="0 0 1096 428" fill="none" xmlns="http://www.w3.org/2000/svg">
<g clip-path="url(#clip0_633_2416)">
<path d="M824.679 415.066C824.679 421.861 819.17 427.37 812.375 427.37H311.698C304.902 427.37 299.394 421.861 299.394 415.066C299.394 408.27 304.902 402.762 311.698 402.762H812.375C819.17 402.762 824.679 408.27 824.679 415.066Z" fill="#BDC9EA"/>
<path d="M527.357 95.2434L550.759 89.4463C550.759 89.4463 556.125 93.3031 551.525 99.0292C551.26 99.3605 527.357 95.2434 527.357 95.2434Z" fill="#6583C4"/>
<path d="M527.357 95.2434L550.759 89.4463C550.759 89.4463 556.125 93.3031 551.525 99.0292C551.26 99.3605 527.357 95.2434 527.357 95.2434Z" stroke="#3056A0" stroke-width="1.5" stroke-miterlimit="10"/>
<path d="M524.442 82.2155L539.908 63.7217C539.908 63.7217 546.514 63.6649 546.183 71.0047C546.164 71.4306 524.442 82.2202 524.442 82.2202V82.2155Z" fill="#6583C4"/>
<path d="M524.442 82.2155L539.908 63.7217C539.908 63.7217 546.514 63.6649 546.183 71.0047C546.164 71.4306 524.442 82.2202 524.442 82.2202V82.2155Z" stroke="#3056A0" stroke-width="1.5" stroke-miterlimit="10"/>
<path d="M514.964 83.3554L507.898 60.3044C507.898 60.3044 511.452 54.7345 517.425 59.0172C517.77 59.268 514.964 83.3554 514.964 83.3554Z" fill="#6583C4"/>
<path d="M514.964 83.3554L507.898 60.3044C507.898 60.3044 511.452 54.7345 517.425 59.0172C517.77 59.268 514.964 83.3554 514.964 83.3554Z" stroke="#3056A0" stroke-width="1.5" stroke-miterlimit="10"/>
<path d="M559.178 392.058L538.034 393.714C538.034 393.714 533.936 389.592 538.753 385.291C539.032 385.04 559.182 392.058 559.182 392.058H559.178Z" fill="#6583C4"/>
<path d="M559.178 392.058L538.034 393.714C538.034 393.714 533.936 389.592 538.753 385.291C539.032 385.04 559.182 392.058 559.182 392.058H559.178Z" stroke="#3056A0" stroke-width="1.5" stroke-miterlimit="10"/>
<path d="M559.826 403.784L543.736 417.607C543.736 417.607 537.996 416.703 539.34 410.381C539.42 410.017 559.826 403.784 559.826 403.784Z" fill="#6583C4"/>
<path d="M559.826 403.784L543.736 417.607C543.736 417.607 537.996 416.703 539.34 410.381C539.42 410.017 559.826 403.784 559.826 403.784Z" stroke="#3056A0" stroke-width="1.5" stroke-miterlimit="10"/>
<path d="M568.217 404.158L571.023 425.179C571.023 425.179 567.133 429.5 562.571 424.924C562.306 424.659 568.217 404.158 568.217 404.158Z" fill="#6583C4"/>
<path d="M568.217 404.158L571.023 425.179C571.023 425.179 567.133 429.5 562.571 424.924C562.306 424.659 568.217 404.158 568.217 404.158Z" stroke="#3056A0" stroke-width="1.5" stroke-miterlimit="10"/>
<path d="M464.158 294.392H460.983L459.662 302.484H455.735L457.055 294.392H452.673V290.782H457.646L458.512 285.571H454.154V281.961H459.109L460.472 273.75H464.381L463.037 281.961H466.212L467.575 273.75H471.503L470.14 281.961H474.697V285.571H469.548L468.682 290.782H473.201V294.392H468.091L466.77 302.484H462.843L464.163 294.392H464.158ZM461.57 290.786H464.745L465.611 285.576H462.436L461.57 290.786Z" fill="#BDC9EA"/>
<path d="M312.895 401.749H803.738" stroke="#3056A0" stroke-width="1.5" stroke-linecap="round" stroke-linejoin="round"/>
<path d="M403.565 386.828L399.32 399.705L389.709 399.444L392.884 388.721" fill="white"/>
<path d="M403.565 386.828L399.32 399.705L389.709 399.444L392.884 388.721" stroke="#3056A0" stroke-width="1.5" stroke-linecap="round" stroke-linejoin="round"/>
<path d="M439.843 192.118L433.999 192.606C435.418 204.54 430.35 213.357 423.701 219.655L430.142 229.797C441.708 214.511 439.838 192.118 439.838 192.118H439.843Z" fill="white" stroke="#3056A0" stroke-width="1.5" stroke-linecap="round" stroke-linejoin="round"/>
<path d="M399.689 233.043L405.089 243.416C417.071 242.082 424.96 236.654 430.147 229.797L423.706 219.655C413.541 229.29 399.689 233.043 399.689 233.043Z" fill="#BDC9EA" stroke="#3056A0" stroke-width="1.5" stroke-linecap="round" stroke-linejoin="round"/>
<path d="M439.763 194.73L434.349 194.636C434.349 194.636 434.009 194.437 433.725 194.134C433.441 193.831 434.032 192.747 434.032 192.747C434.032 192.747 432.026 189.61 431.571 186.931C431.112 184.253 428.992 181.617 430.275 181.584C431.557 181.551 431.619 183.855 432.253 183.581C432.57 183.444 432.674 181.333 432.314 179.279C431.955 177.225 431.131 175.219 432.03 175.389C433.833 175.725 434.808 182.317 434.808 182.317C434.808 182.317 434.941 180.193 434.931 177.968C434.922 175.583 434.808 173.089 435.939 173.104C436.914 173.118 436.895 175.309 437.16 177.495C437.421 179.634 437.969 181.764 437.969 181.764C437.969 181.764 438.452 174.556 439.238 175.299C440.028 176.047 439.455 182.455 439.914 182.455C440.373 182.455 440.941 177.968 441.59 178.333C442.243 178.702 441.552 186.406 441.552 186.406C441.552 186.406 441.798 190.925 440.061 193.022C440.061 193.022 440.833 194.404 439.763 194.73Z" fill="#223580"/>
<path d="M426.914 216.45L421.132 220.065L429.259 233.061L435.041 229.446L426.914 216.45Z" fill="#BDC9EA" stroke="#3056A0" stroke-width="1.5" stroke-linecap="round" stroke-linejoin="round"/>
<path d="M-96.723 174.968L-101.186 161.765C-101.053 161.718 -86.6763 156.735 -71.6607 145.013C-52.0075 129.671 -40.508 110.529 -37.4841 88.1165C-34.3513 64.8857 -24.0917 44.2529 -7.81733 28.4565C7.26923 13.81 26.9461 4.15612 47.5789 1.26942C67.748 -1.55103 87.5811 2.06917 104.93 11.7325C123.854 22.2761 139.102 39.8471 149.025 62.5574C165.035 99.209 191.748 122.251 228.409 131.038C256.198 137.702 279.656 133.31 279.887 133.267L282.561 146.948C281.506 147.157 256.344 151.941 225.717 144.729C207.616 140.465 191.346 132.879 177.367 122.184C159.924 108.839 146.091 90.6578 136.253 68.1415C119.444 29.6727 87.0226 9.83014 49.5097 15.0783C17.5099 19.5503 -17.528 44.4469 -23.6705 89.9858C-27.1677 115.924 -40.9339 138.856 -63.4786 156.314C-80.3114 169.346 -96.0605 174.751 -96.723 174.978V174.968Z" fill="#223580"/>
<path d="M275.278 137.309C275.278 137.309 178.09 153.654 139.962 59.4954C101.834 -34.6632 -10.0468 23.776 -32.3265 78.3204C-54.6061 132.865 -102.218 155.078 -102.218 155.078" stroke="#3056A0" stroke-width="3" stroke-linecap="round" stroke-linejoin="round"/>
<path d="M352.007 141.057C352.007 148.231 346.191 154.047 339.017 154.047H277.478C270.304 154.047 264.488 148.231 264.488 141.057C264.488 133.882 270.304 128.066 277.478 128.066H339.017C346.191 128.066 352.007 133.882 352.007 141.057Z" fill="white" stroke="#3056A0" stroke-width="1.5" stroke-linecap="round" stroke-linejoin="round"/>
<path d="M335.075 143.698H279.376C273.792 143.698 269.131 139.803 267.929 134.588C267.035 136.249 266.523 138.147 266.523 140.167C266.523 146.66 271.79 151.927 278.283 151.927H333.982C340.475 151.927 345.742 146.66 345.742 140.167C345.742 139.254 345.629 138.374 345.43 137.522C343.442 141.199 339.552 143.702 335.08 143.702L335.075 143.698Z" fill="#BDC9EA"/>
<path d="M379.36 145.841C379.36 159.253 368.495 170.118 355.088 170.118C341.682 170.118 330.816 159.253 330.816 145.841V136.268C330.816 122.861 341.682 111.991 355.088 111.991C368.495 111.991 379.36 122.857 379.36 136.268V145.841Z" fill="white" stroke="#3056A0" stroke-width="1.5" stroke-linecap="round" stroke-linejoin="round"/>
<path d="M362.357 157.085C350.488 157.085 340.868 147.465 340.868 135.596V127.12C340.868 124.243 341.436 121.503 342.462 118.995C336.751 122.857 332.993 129.397 332.993 136.812V145.288C332.993 157.161 342.614 166.777 354.483 166.777C363.479 166.777 371.178 161.25 374.382 153.408C370.951 155.727 366.815 157.081 362.362 157.081L362.357 157.085Z" fill="#BDC9EA"/>
<path d="M382.776 95.2432H431.325C446.421 95.2432 458.678 107.5 458.678 122.596V159.522C458.678 174.618 446.421 186.875 431.325 186.875H382.776C367.68 186.875 355.424 174.618 355.424 159.522V122.601C355.424 107.505 367.68 95.2479 382.776 95.2479V95.2432Z" fill="white" stroke="#3056A0" stroke-width="1.5" stroke-linecap="round" stroke-linejoin="round"/>
<path d="M440.52 170.709H395.398C381.357 170.709 369.976 159.327 369.976 145.287V110.968C369.976 107.674 370.61 104.532 371.746 101.646C363.502 105.848 357.856 114.413 357.856 124.299V158.618C357.856 172.658 369.238 184.04 383.278 184.04H428.401C439.153 184.04 448.333 177.367 452.053 167.94C448.589 169.705 444.675 170.709 440.52 170.709Z" fill="#BDC9EA"/>
<path d="M462.904 77.123C458.711 77.123 454.802 77.866 451.504 79.139C451.452 79.139 451.405 79.1343 451.353 79.1343C449.128 79.1343 446.994 80.5161 445.021 83.0432C443.256 84.6947 442.091 86.6066 441.718 88.6604C436.588 99.7482 433.176 119.42 433.176 141.847C433.176 176.482 441.315 204.564 451.353 204.564C452.294 204.564 453.222 204.318 454.126 203.84C456.804 204.578 459.771 204.994 462.904 204.994C474.683 204.994 484.228 199.178 484.228 192.004V90.1227C484.228 82.9485 474.678 77.1278 462.904 77.1278V77.123Z" fill="white" stroke="#3056A0" stroke-width="1.5" stroke-linecap="round" stroke-linejoin="round"/>
<path d="M420.616 157.937C420.616 158.817 419.902 159.537 419.022 159.537C418.146 159.537 417.432 158.822 417.432 157.937V118.28C417.432 117.405 418.146 116.69 419.022 116.69C419.902 116.69 420.616 117.405 420.616 118.28V157.937Z" fill="#BDC9EA"/>
<path d="M409.103 157.937C409.103 158.817 408.388 159.537 407.508 159.537C406.633 159.537 405.918 158.822 405.918 157.937V118.28C405.918 117.405 406.633 116.69 407.508 116.69C408.388 116.69 409.103 117.405 409.103 118.28V157.937Z" fill="#BDC9EA"/>
<path d="M493.772 141.847C493.772 176.483 485.633 204.564 475.596 204.564C465.559 204.564 457.419 176.487 457.419 141.847C457.419 107.207 465.559 79.1299 475.596 79.1299C485.633 79.1299 493.772 107.207 493.772 141.847Z" fill="#6583C4" stroke="#3056A0" stroke-width="1.5" stroke-miterlimit="10"/>
<path d="M471.361 151.784C471.361 153.124 470.277 154.207 468.938 154.207C467.598 154.207 466.515 153.124 466.515 151.784V130.574C466.515 129.235 467.598 128.151 468.938 128.151C470.277 128.151 471.361 129.235 471.361 130.574V151.784Z" fill="#223580"/>
<path d="M484.994 143.603C484.994 144.942 483.911 146.026 482.571 146.026C481.232 146.026 480.148 144.942 480.148 143.603V122.393C480.148 121.053 481.232 119.97 482.571 119.97C483.911 119.97 484.994 121.053 484.994 122.393V143.603Z" fill="#223580"/>
<path d="M434.316 381.221L432.423 392.204L421.97 393.875L424.322 383.118" fill="white"/>
<path d="M434.316 381.221L432.423 392.204L421.97 393.875L424.322 383.118" stroke="#3056A0" stroke-width="1.5" stroke-linecap="round" stroke-linejoin="round"/>
<path d="M386.605 227.681C386.605 227.681 370.842 230.042 372.105 245.332C372.531 250.514 381.404 295.296 381.404 295.296L422.779 291.359C422.779 291.359 411.667 234.301 404.574 229.574C397.48 224.846 386.605 227.681 386.605 227.681Z" fill="#223580"/>
<path d="M381.404 295.301C381.404 295.301 383.401 307.955 387.869 319.89C394.598 337.872 400.362 346.812 398.743 360.143C396.321 380.113 388.72 391.376 388.72 391.376L406.22 394.177C406.22 394.177 417.128 357.516 415.515 352.263C412.68 327.674 410.058 289.646 410.058 289.646L381.409 295.301H381.404Z" fill="#223580"/>
<path d="M419.939 285.136C419.939 285.136 440.818 315.602 441.764 337.115C442.536 354.648 435.603 386.227 435.603 386.227L420.989 385.763C420.989 385.763 426.214 345.6 422.982 335.904C413.527 318.882 399.349 298.131 399.349 298.131L419.944 285.136H419.939Z" fill="#223580"/>
<path d="M382.351 234.183C382.351 234.183 392.989 230.989 397.012 241.869C401.029 252.743 397.476 260.391 391.016 261.56C377.534 263.992 367.932 235.84 382.351 234.188V234.183Z" fill="#BDC9EA"/>
<path d="M408.236 243.766C408.596 244.892 403.864 247.779 403.864 247.779C403.864 247.779 402.709 244.703 401.209 242.261C400.461 241.04 399.51 239.682 398.336 238.352C396.533 236.667 394.172 234.301 391.522 233.132C390.589 232.702 389.591 232.337 388.531 232.067C386.416 231.523 386.278 229.384 388.436 229.015C389.515 228.684 390.618 228.551 391.73 228.575C392.842 228.599 393.959 228.783 395.061 229.077C396.268 229.327 397.347 229.687 398.365 230.156C399.382 230.624 400.347 231.201 401.327 231.883C402.34 232.503 406.211 237.453 408.231 243.766H408.236Z" fill="#BDC9EA"/>
<path d="M386.993 208.681L385.384 219.092L378.086 212.396L375.493 207.224L378.408 204.469C378.408 204.469 389.42 195.563 391.2 193.538C392.979 191.512 398.809 202.837 393.788 207.531" fill="#223580"/>
<path d="M384.163 217.279L385.072 230.047C385.072 230.047 389.624 232.352 392.222 231.997C394.825 231.642 396.136 229.806 396.136 229.806L391.924 217.36L384.163 217.279Z" fill="white" stroke="#3056A0" stroke-width="1.5" stroke-linecap="round" stroke-linejoin="round"/>
<path d="M392.809 205.112L385.005 208.193C385.005 208.193 385.819 211.747 385.649 212.159L383.42 213.507C382.336 214.26 382.232 215.982 383.183 217.355C384.135 218.732 385.786 219.238 386.87 218.486C387.121 218.311 387.315 218.079 387.461 217.819C389.704 220.09 391.323 221.131 394.29 221.131C399.917 221.131 392.809 205.117 392.809 205.117V205.112Z" fill="white" stroke="#3056A0" stroke-width="1.5" stroke-linecap="round" stroke-linejoin="round"/>
<path d="M413.56 191.777H409.069C409.59 201.895 404.294 211.246 398.218 218.633L406.182 225.254C413.844 209.05 413.56 191.777 413.56 191.777Z" fill="white" stroke="#3056A0" stroke-width="1.5" stroke-linecap="round" stroke-linejoin="round"/>
<path d="M380.888 234.562C379.648 236.067 378.754 237.429 378.134 238.65C376.672 241.4 376.672 245.19 379.038 246.61C386.605 251.811 393.698 243.316 398.27 237.794C399.216 236.644 400.096 235.485 400.929 234.259C401.757 233.038 402.534 231.841 403.262 230.568C403.797 229.687 404.303 228.93 404.781 228.031C405.274 227.113 405.737 226.186 406.177 225.253L398.213 218.633C398.104 218.765 383.292 231.935 380.888 234.562Z" fill="#BDC9EA" stroke="#3056A0" stroke-width="1.5" stroke-linecap="round" stroke-linejoin="round"/>
<path d="M399.534 213.587L395.175 218.825L406.956 228.631L411.315 223.393L399.534 213.587Z" fill="#BDC9EA" stroke="#3056A0" stroke-width="1.5" stroke-linecap="round" stroke-linejoin="round"/>
<path d="M418.406 280.479C418.406 280.479 393.15 287.46 379.573 285.784L380.562 297.927C380.562 297.927 406.793 291.477 419.074 285.056C419.291 284.942 419.083 284.365 419.083 284.365L418.402 280.479H418.406Z" fill="white" stroke="#3056A0" stroke-width="1.5" stroke-linecap="round" stroke-linejoin="round"/>
<path d="M430.114 400.112L429.167 398.929L419.84 398.3L419.045 400.86C419.045 400.86 446.114 403.936 446.587 401.925C446.738 401.281 446.89 400.907 446.838 400.586L430.114 400.112Z" fill="#BDC9EA" stroke="#3056A0" stroke-width="1.5" stroke-linecap="round" stroke-linejoin="round"/>
<path d="M430.114 400.112L446.838 400.585C446.734 399.899 447.907 399.156 444.046 396.904C441.949 395.683 437.529 395.612 435.949 394.419C433.251 392.384 431.851 389.791 431.851 389.791C431.851 389.791 428.264 394.164 426.257 393.336C424.246 392.507 421.884 391.76 421.884 391.76L419.845 398.304L429.172 398.934L430.119 400.117L430.114 400.112Z" fill="#BDC9EA" stroke="#3056A0" stroke-width="1.5" stroke-linecap="round" stroke-linejoin="round"/>
<path d="M397.409 407.092L396.51 405.876L387.211 404.887L386.316 407.414C386.316 407.414 413.248 411.536 413.797 409.548C413.972 408.914 414.138 408.545 414.1 408.218L397.409 407.097V407.092Z" fill="#BDC9EA" stroke="#3056A0" stroke-width="1.5" stroke-linecap="round" stroke-linejoin="round"/>
<path d="M397.409 407.092L414.1 408.214C414.019 407.523 415.221 406.827 411.45 404.423C409.405 403.122 404.985 402.88 403.457 401.626C400.84 399.487 399.543 396.842 399.543 396.842C399.543 396.842 395.791 401.072 393.813 400.169C391.839 399.265 389.501 398.422 389.501 398.422L387.211 404.882L396.51 405.871L397.409 407.087V407.092Z" fill="#BDC9EA" stroke="#3056A0" stroke-width="1.5" stroke-linecap="round" stroke-linejoin="round"/>
<path d="M414.237 193.817L408.733 193.571C408.733 193.571 408.392 193.358 408.113 193.045C407.834 192.728 408.463 191.644 408.463 191.644C408.463 191.644 406.514 188.398 406.121 185.663C405.728 182.928 403.646 180.188 404.947 180.188C406.249 180.188 406.249 182.535 406.902 182.275C407.228 182.147 407.394 180.003 407.081 177.902C406.774 175.801 405.988 173.742 406.902 173.936C408.724 174.324 409.538 181.058 409.538 181.058C409.538 181.058 409.732 178.9 409.784 176.643C409.84 174.215 409.793 171.679 410.943 171.726C411.932 171.769 411.856 173.998 412.065 176.222C412.268 178.404 412.77 180.585 412.77 180.585C412.77 180.585 413.461 173.269 414.241 174.05C415.022 174.831 414.265 181.333 414.734 181.342C415.197 181.352 415.898 176.809 416.551 177.197C417.204 177.585 416.291 185.403 416.291 185.403C416.291 185.403 416.418 190.007 414.592 192.089C414.592 192.089 415.339 193.514 414.241 193.821L414.237 193.817Z" fill="#223580"/>
<path d="M406.944 254.57C407.526 256.08 407.488 257.499 406.864 257.736C406.239 257.977 405.264 256.946 404.682 255.436C404.1 253.927 404.138 252.507 404.762 252.265C405.387 252.024 406.362 253.056 406.944 254.565V254.57Z" fill="white"/>
<path d="M412.093 251.437C412.675 252.947 412.638 254.367 412.013 254.608C411.388 254.849 410.413 253.818 409.831 252.308C409.249 250.799 409.287 249.379 409.912 249.138C410.536 248.896 411.511 249.928 412.093 251.437Z" fill="white"/>
<path d="M379.152 284.393H389.25C390.921 284.393 392.279 285.751 392.279 287.421V307.822C392.279 309.493 390.921 310.851 389.25 310.851H379.152C377.481 310.851 376.123 309.493 376.123 307.822V287.421C376.123 285.751 377.481 284.393 379.152 284.393Z" fill="#E6EFF9" stroke="#3056A0" stroke-width="1.5" stroke-linecap="round" stroke-linejoin="round"/>
<path d="M804.046 328.361C803.98 327.448 803.909 326.587 803.847 325.773C803.786 324.959 803.776 324.192 803.738 323.487C803.705 322.782 803.667 322.133 803.672 321.547C803.658 320.775 803.648 320.127 803.648 319.583C804.992 318.262 814.627 308.036 806.705 293.508C806.705 293.508 792.073 304.099 803.383 319.578C803.303 320.113 803.208 320.761 803.123 321.518C802.976 322.692 802.863 324.126 802.754 325.777C802.716 326.601 802.683 327.476 802.645 328.404C802.588 329.331 802.73 330.301 802.773 331.314C802.83 332.104 802.872 332.928 802.934 333.77C802.394 333.056 801.675 332.119 800.956 331.177C800.596 330.704 800.232 330.226 799.891 329.786C799.758 329.625 799.635 329.469 799.512 329.317C801.699 309.186 787.123 306.347 787.123 306.347C787.483 327.576 796.077 329.416 798.731 329.473C798.925 329.715 799.134 329.965 799.351 330.23C799.687 330.671 800.052 331.144 800.407 331.612C801.126 332.554 801.845 333.496 802.38 334.206C802.46 334.286 802.494 334.395 802.579 334.452C802.659 334.518 802.744 334.575 802.815 334.636C802.896 334.693 802.953 334.736 803.014 334.788C803.123 335.777 803.232 336.789 803.341 337.84C803.407 338.417 803.454 339.004 803.539 339.596C803.629 340.182 803.724 340.779 803.819 341.38C804.013 342.586 804.207 343.817 804.405 345.066C804.652 346.325 804.883 347.56 805.167 348.843C805.305 349.448 805.447 350.059 805.588 350.669C805.503 350.508 805.423 350.352 805.319 350.196C805.148 349.912 804.973 349.623 804.798 349.33C804.453 348.753 804.103 348.166 803.771 347.622C803.416 347.092 803.08 346.599 802.796 346.178C802.716 346.084 802.678 345.961 802.588 345.88C802.503 345.8 802.413 345.724 802.337 345.648C802.262 345.582 802.205 345.539 802.139 345.483C801.713 342.355 799.072 330.003 783.853 327.211C783.853 327.211 782.878 345.222 801.982 346.192C801.997 346.226 802.006 346.254 802.016 346.287C802.058 346.396 802.153 346.476 802.214 346.581C802.498 346.997 802.82 347.48 803.175 347.995C803.497 348.53 803.842 349.103 804.188 349.68C804.358 349.964 804.533 350.253 804.704 350.532C804.883 350.806 805.021 351.1 805.158 351.379C805.437 351.942 805.693 352.467 805.92 352.917C805.981 353.021 806 353.149 806.085 353.234C806.128 353.291 806.171 353.338 806.218 353.39C806.772 355.733 807.335 358.094 807.751 360.475C808.011 361.781 808.168 363.101 808.347 364.407C808.433 365.065 808.461 365.723 808.523 366.376C808.57 367.034 808.641 367.687 808.641 368.335C808.641 368.482 808.646 368.624 808.65 368.775C808.608 368.685 808.56 368.595 808.513 368.505C808.314 368.112 808.082 367.71 807.817 367.303C807.581 366.882 807.264 366.494 806.975 366.078C806.658 365.685 806.341 365.278 805.986 364.904C805.645 364.577 805.324 364.218 804.954 363.92C805.044 363.891 805.13 363.872 805.219 363.839C805.219 363.839 800.25 348.966 784.142 351.743C784.142 351.743 787.928 368.756 804.14 364.161C804.23 364.237 804.32 364.303 804.405 364.379C804.793 364.667 805.111 365.046 805.466 365.387C805.802 365.746 806.104 366.134 806.412 366.508C806.686 366.91 806.989 367.28 807.216 367.687C807.467 368.075 807.69 368.463 807.888 368.841C808.097 369.215 808.258 369.579 808.418 369.915C808.508 370.081 808.541 370.261 808.631 370.403C808.646 370.422 808.655 370.445 808.669 370.469C808.669 371.056 808.669 371.638 808.627 372.22C808.598 372.859 808.575 373.493 808.546 374.122C808.494 374.752 808.418 375.381 808.352 375.996C808.291 376.616 808.224 377.227 808.163 377.837C808.068 378.443 807.969 379.044 807.874 379.636C807.675 380.823 807.515 381.983 807.245 383.1C806.994 384.216 806.757 385.305 806.526 386.36C806.459 386.606 806.393 386.848 806.327 387.089C806.27 386.852 806.208 386.616 806.128 386.379C805.801 385.333 805.286 384.377 804.822 383.696C804.76 383.62 804.737 383.516 804.656 383.459C804.581 383.398 804.505 383.341 804.439 383.289C804.344 383.223 804.268 383.175 804.188 383.119C804.046 381.467 802.531 369.381 789.163 368.008C789.163 368.008 788.306 383.847 803.894 383.313C803.927 383.407 803.961 383.497 803.998 383.611C804.027 383.686 804.055 383.772 804.084 383.857C804.112 383.937 804.192 383.999 804.235 384.084C804.661 384.709 805.153 385.617 805.451 386.587C805.612 387.065 805.721 387.562 805.783 388.031C805.825 388.263 805.835 388.49 805.854 388.707C805.854 388.741 805.854 388.769 805.854 388.802C805.801 388.991 805.754 389.181 805.702 389.37C805.57 389.848 805.437 390.326 805.309 390.79C805.172 391.244 805.021 391.689 804.917 392.134C804.694 393.023 804.486 393.866 804.287 394.656C803.913 396.251 803.502 397.614 803.175 398.745C802.527 401.007 802.177 402.313 802.177 402.313C802.177 402.313 802.73 401.087 803.667 398.924C804.136 397.836 804.718 396.525 805.286 394.982C805.494 394.457 805.707 393.894 805.934 393.321C805.986 393.298 806.029 393.279 806.085 393.25C806.161 393.213 806.251 393.17 806.336 393.127C806.426 393.09 806.478 392.99 806.563 392.929C806.72 392.796 806.871 392.626 807.074 392.498C807.268 392.365 807.481 392.224 807.694 392.077C807.912 391.93 808.125 391.769 808.362 391.627C808.603 391.509 808.854 391.381 809.1 391.253C809.346 391.13 809.587 390.984 809.848 390.908C810.103 390.809 810.359 390.714 810.595 390.629C810.837 390.52 811.087 390.482 811.315 390.416C811.547 390.359 811.759 390.283 811.963 390.255C812.067 390.231 812.171 390.245 812.261 390.203C812.304 390.179 812.346 390.16 812.394 390.137C815.148 390.865 827.892 393.397 836.353 380.099C836.353 380.099 820.197 372.514 812.072 389.517C811.996 389.531 811.916 389.554 811.835 389.559C811.617 389.592 811.39 389.668 811.144 389.725C810.898 389.796 810.638 389.843 810.382 389.952C810.127 390.047 809.857 390.146 809.587 390.255C809.313 390.34 809.062 390.491 808.797 390.619C808.537 390.752 808.276 390.889 808.021 391.022C807.77 391.168 807.543 391.339 807.316 391.49C807.089 391.646 806.871 391.793 806.663 391.94C806.559 392.001 806.469 392.077 806.388 392.153C806.649 391.395 806.824 390.577 807.065 389.749C807.33 388.769 807.604 387.751 807.893 386.696C808.125 385.622 808.371 384.519 808.617 383.388C808.892 382.257 809.062 381.069 809.261 379.858C809.355 379.257 809.455 378.647 809.554 378.027C809.587 377.71 809.625 377.383 809.654 377.061C809.691 377.047 809.725 377.033 809.762 377.019C809.829 376.99 809.857 376.915 809.914 376.872C810.326 376.46 810.874 375.916 811.414 375.367C811.963 374.818 812.507 374.274 812.919 373.857C812.952 373.82 812.995 373.791 813.023 373.758C816.525 373.252 828.346 370.45 831.171 355.648C831.171 355.648 813.103 354.535 812.048 373.734C811.703 374.08 811.315 374.477 810.917 374.865C810.51 375.272 810.103 375.679 809.753 376.03C809.814 375.433 809.885 374.832 809.938 374.222C809.966 373.574 809.994 372.92 810.018 372.267C810.113 370.957 810.051 369.627 810.027 368.283C810.027 367.616 809.952 366.944 809.909 366.272C809.848 365.6 809.819 364.923 809.729 364.246C809.592 363.248 809.455 362.244 809.294 361.246C809.308 361.137 809.327 361.033 809.332 360.915C809.407 360.285 809.436 359.552 809.573 358.766C809.701 357.981 809.814 357.143 809.985 356.305C810.288 354.635 810.662 352.974 810.945 351.729C810.974 351.573 811.04 351.431 811.045 351.284C811.045 351.204 811.054 351.124 811.059 351.048C812.81 350.177 825.635 343.197 819.998 327.49C819.998 327.49 802.238 338.431 810.562 350.693C810.557 350.712 810.548 350.721 810.543 350.735C810.486 350.859 810.43 350.986 810.368 351.124C810.311 351.261 810.311 351.417 810.264 351.573C809.971 352.822 809.597 354.493 809.294 356.178C809.124 357.015 809.005 357.872 808.877 358.667C808.868 358.724 808.868 358.78 808.859 358.837C808.428 356.641 807.907 354.483 807.406 352.354C807.093 351.071 806.809 349.794 806.53 348.544C806.251 347.295 806.01 346.008 805.773 344.796C805.579 343.561 805.385 342.345 805.2 341.153C805.106 340.556 805.016 339.97 804.921 339.387C804.841 338.805 804.793 338.228 804.727 337.655C804.618 336.633 804.514 335.639 804.41 334.669C804.453 334.395 804.491 334.116 804.571 333.836C804.656 333.486 804.737 333.127 804.86 332.781C804.964 332.426 805.092 332.081 805.234 331.745C805.357 331.409 805.527 331.092 805.669 330.775C805.986 330.159 806.308 329.596 806.62 329.142C806.686 329.024 806.786 328.934 806.843 328.815C806.895 328.697 806.951 328.584 806.994 328.479C806.994 328.47 806.999 328.465 807.004 328.461C809.791 327.595 818.744 323.903 816.369 312.806C816.369 312.806 803.544 315.821 806.175 328.546C806.137 328.612 806.095 328.683 806.043 328.744C805.716 329.222 805.371 329.809 805.044 330.458C804.893 330.794 804.722 331.12 804.59 331.475C804.462 331.787 804.349 332.104 804.245 332.431C804.221 332.019 804.197 331.608 804.169 331.21C804.088 330.211 804.088 329.251 804.032 328.342L804.046 328.361Z" fill="#6583C4"/>
<path d="M300.046 262.492C300.046 263.703 299.067 264.683 297.855 264.683C296.644 264.683 295.664 263.703 295.664 262.492C295.664 261.28 296.644 260.301 297.855 260.301C299.067 260.301 300.046 261.28 300.046 262.492Z" fill="#BDC9EA"/>
<path d="M312.507 262.492C312.507 263.703 311.528 264.683 310.316 264.683C309.105 264.683 308.125 263.703 308.125 262.492C308.125 261.28 309.105 260.301 310.316 260.301C311.528 260.301 312.507 261.28 312.507 262.492Z" fill="#BDC9EA"/>
<path d="M324.967 262.492C324.967 263.703 323.988 264.683 322.781 264.683C321.574 264.683 320.59 263.703 320.59 262.492C320.59 261.28 321.574 260.301 322.781 260.301C323.988 260.301 324.967 261.28 324.967 262.492Z" fill="#BDC9EA"/>
<path d="M337.427 262.492C337.427 263.703 336.447 264.683 335.236 264.683C334.025 264.683 333.045 263.703 333.045 262.492C333.045 261.28 334.025 260.301 335.236 260.301C336.447 260.301 337.427 261.28 337.427 262.492Z" fill="#BDC9EA"/>
<path d="M349.887 262.492C349.887 263.703 348.907 264.683 347.696 264.683C346.484 264.683 345.505 263.703 345.505 262.492C345.505 261.28 346.484 260.301 347.696 260.301C348.907 260.301 349.887 261.28 349.887 262.492Z" fill="#BDC9EA"/>
<path d="M362.342 262.492C362.342 263.703 361.363 264.683 360.156 264.683C358.949 264.683 357.965 263.703 357.965 262.492C357.965 261.28 358.944 260.301 360.156 260.301C361.367 260.301 362.342 261.28 362.342 262.492Z" fill="#BDC9EA"/>
<path d="M300.046 276.121C300.046 277.332 299.067 278.312 297.855 278.312C296.644 278.312 295.664 277.328 295.664 276.121C295.664 274.914 296.644 273.935 297.855 273.935C299.067 273.935 300.046 274.914 300.046 276.121Z" fill="#BDC9EA"/>
<path d="M312.507 276.121C312.507 277.332 311.528 278.312 310.316 278.312C309.105 278.312 308.125 277.328 308.125 276.121C308.125 274.914 309.105 273.935 310.316 273.935C311.528 273.935 312.507 274.914 312.507 276.121Z" fill="#BDC9EA"/>
<path d="M324.967 276.121C324.967 277.332 323.988 278.312 322.781 278.312C321.574 278.312 320.59 277.328 320.59 276.121C320.59 274.914 321.574 273.935 322.781 273.935C323.988 273.935 324.967 274.914 324.967 276.121Z" fill="#BDC9EA"/>
<path d="M337.427 276.121C337.427 277.332 336.447 278.312 335.236 278.312C334.025 278.312 333.045 277.328 333.045 276.121C333.045 274.914 334.025 273.935 335.236 273.935C336.447 273.935 337.427 274.914 337.427 276.121Z" fill="#BDC9EA"/>
<path d="M349.887 276.121C349.887 277.332 348.907 278.312 347.696 278.312C346.484 278.312 345.505 277.328 345.505 276.121C345.505 274.914 346.484 273.935 347.696 273.935C348.907 273.935 349.887 274.914 349.887 276.121Z" fill="#BDC9EA"/>
<path d="M362.342 276.121C362.342 277.332 361.363 278.312 360.156 278.312C358.949 278.312 357.965 277.328 357.965 276.121C357.965 274.914 358.944 273.935 360.156 273.935C361.367 273.935 362.342 274.914 362.342 276.121Z" fill="#BDC9EA"/>
<path d="M300.046 289.745C300.046 290.952 299.067 291.936 297.855 291.936C296.644 291.936 295.664 290.956 295.664 289.745C295.664 288.533 296.644 287.554 297.855 287.554C299.067 287.554 300.046 288.533 300.046 289.745Z" fill="#BDC9EA"/>
<path d="M312.507 289.745C312.507 290.952 311.528 291.936 310.316 291.936C309.105 291.936 308.125 290.956 308.125 289.745C308.125 288.533 309.105 287.554 310.316 287.554C311.528 287.554 312.507 288.533 312.507 289.745Z" fill="#BDC9EA"/>
<path d="M324.967 289.745C324.967 290.952 323.988 291.936 322.781 291.936C321.574 291.936 320.59 290.956 320.59 289.745C320.59 288.533 321.574 287.554 322.781 287.554C323.988 287.554 324.967 288.533 324.967 289.745Z" fill="#BDC9EA"/>
<path d="M337.427 289.745C337.427 290.952 336.447 291.936 335.236 291.936C334.025 291.936 333.045 290.956 333.045 289.745C333.045 288.533 334.025 287.554 335.236 287.554C336.447 287.554 337.427 288.533 337.427 289.745Z" fill="#BDC9EA"/>
<path d="M349.887 289.745C349.887 290.952 348.907 291.936 347.696 291.936C346.484 291.936 345.505 290.956 345.505 289.745C345.505 288.533 346.484 287.554 347.696 287.554C348.907 287.554 349.887 288.533 349.887 289.745Z" fill="#BDC9EA"/>
<path d="M362.342 289.745C362.342 290.952 361.363 291.936 360.156 291.936C358.949 291.936 357.965 290.956 357.965 289.745C357.965 288.533 358.944 287.554 360.156 287.554C361.367 287.554 362.342 288.533 362.342 289.745Z" fill="#BDC9EA"/>
<path d="M300.046 303.375C300.046 304.581 299.067 305.561 297.855 305.561C296.644 305.561 295.664 304.581 295.664 303.375C295.664 302.168 296.644 301.184 297.855 301.184C299.067 301.184 300.046 302.163 300.046 303.375Z" fill="#BDC9EA"/>
<path d="M312.507 303.375C312.507 304.581 311.528 305.561 310.316 305.561C309.105 305.561 308.125 304.581 308.125 303.375C308.125 302.168 309.105 301.184 310.316 301.184C311.528 301.184 312.507 302.163 312.507 303.375Z" fill="#BDC9EA"/>
<path d="M324.967 303.375C324.967 304.581 323.988 305.561 322.781 305.561C321.574 305.561 320.59 304.581 320.59 303.375C320.59 302.168 321.574 301.184 322.781 301.184C323.988 301.184 324.967 302.163 324.967 303.375Z" fill="#BDC9EA"/>
<path d="M337.427 303.375C337.427 304.581 336.447 305.561 335.236 305.561C334.025 305.561 333.045 304.581 333.045 303.375C333.045 302.168 334.025 301.184 335.236 301.184C336.447 301.184 337.427 302.163 337.427 303.375Z" fill="#BDC9EA"/>
<path d="M349.887 303.375C349.887 304.581 348.907 305.561 347.696 305.561C346.484 305.561 345.505 304.581 345.505 303.375C345.505 302.168 346.484 301.184 347.696 301.184C348.907 301.184 349.887 302.163 349.887 303.375Z" fill="#BDC9EA"/>
<path d="M362.342 303.375C362.342 304.581 361.363 305.561 360.156 305.561C358.949 305.561 357.965 304.581 357.965 303.375C357.965 302.168 358.944 301.184 360.156 301.184C361.367 301.184 362.342 302.163 362.342 303.375Z" fill="#BDC9EA"/>
<path d="M553.764 146.271C553.764 147.161 553.044 147.885 552.15 147.885C551.255 147.885 550.536 147.161 550.536 146.271C550.536 145.381 551.26 144.657 552.15 144.657C553.04 144.657 553.764 145.377 553.764 146.271Z" fill="#6583C4"/>
<path d="M562.935 146.271C562.935 147.161 562.216 147.885 561.322 147.885C560.427 147.885 559.708 147.161 559.708 146.271C559.708 145.381 560.432 144.657 561.322 144.657C562.211 144.657 562.935 145.377 562.935 146.271Z" fill="#6583C4"/>
<path d="M572.102 146.271C572.102 147.161 571.382 147.885 570.493 147.885C569.603 147.885 568.879 147.161 568.879 146.271C568.879 145.381 569.603 144.657 570.493 144.657C571.382 144.657 572.102 145.377 572.102 146.271Z" fill="#6583C4"/>
<path d="M581.273 146.271C581.273 147.161 580.553 147.885 579.664 147.885C578.774 147.885 578.05 147.161 578.05 146.271C578.05 145.381 578.774 144.657 579.664 144.657C580.553 144.657 581.273 145.377 581.273 146.271Z" fill="#6583C4"/>
<path d="M590.444 146.271C590.444 147.161 589.72 147.885 588.831 147.885C587.941 147.885 587.217 147.161 587.217 146.271C587.217 145.381 587.936 144.657 588.831 144.657C589.725 144.657 590.444 145.377 590.444 146.271Z" fill="#6583C4"/>
<path d="M599.61 146.271C599.61 147.161 598.886 147.885 598.001 147.885C597.116 147.885 596.388 147.161 596.388 146.271C596.388 145.381 597.112 144.657 598.001 144.657C598.891 144.657 599.61 145.377 599.61 146.271Z" fill="#6583C4"/>
<path d="M553.764 156.299C553.764 157.189 553.044 157.913 552.15 157.913C551.255 157.913 550.536 157.189 550.536 156.299C550.536 155.41 551.26 154.69 552.15 154.69C553.04 154.69 553.764 155.41 553.764 156.299Z" fill="#6583C4"/>
<path d="M562.935 156.299C562.935 157.189 562.216 157.913 561.322 157.913C560.427 157.913 559.708 157.189 559.708 156.299C559.708 155.41 560.432 154.69 561.322 154.69C562.211 154.69 562.935 155.41 562.935 156.299Z" fill="#6583C4"/>
<path d="M572.102 156.299C572.102 157.189 571.382 157.913 570.493 157.913C569.603 157.913 568.879 157.189 568.879 156.299C568.879 155.41 569.603 154.69 570.493 154.69C571.382 154.69 572.102 155.41 572.102 156.299Z" fill="#6583C4"/>
<path d="M581.273 156.299C581.273 157.189 580.553 157.913 579.664 157.913C578.774 157.913 578.05 157.189 578.05 156.299C578.05 155.41 578.774 154.69 579.664 154.69C580.553 154.69 581.273 155.41 581.273 156.299Z" fill="#6583C4"/>
<path d="M590.444 156.299C590.444 157.189 589.72 157.913 588.831 157.913C587.941 157.913 587.217 157.189 587.217 156.299C587.217 155.41 587.936 154.69 588.831 154.69C589.725 154.69 590.444 155.41 590.444 156.299Z" fill="#6583C4"/>
<path d="M599.61 156.299C599.61 157.189 598.886 157.913 598.001 157.913C597.116 157.913 596.388 157.189 596.388 156.299C596.388 155.41 597.112 154.69 598.001 154.69C598.891 154.69 599.61 155.41 599.61 156.299Z" fill="#6583C4"/>
<path d="M553.764 166.327C553.764 167.216 553.044 167.94 552.15 167.94C551.255 167.94 550.536 167.216 550.536 166.327C550.536 165.437 551.26 164.713 552.15 164.713C553.04 164.713 553.764 165.437 553.764 166.327Z" fill="#6583C4"/>
<path d="M562.935 166.327C562.935 167.216 562.216 167.94 561.322 167.94C560.427 167.94 559.708 167.216 559.708 166.327C559.708 165.437 560.432 164.713 561.322 164.713C562.211 164.713 562.935 165.437 562.935 166.327Z" fill="#6583C4"/>
<path d="M572.102 166.327C572.102 167.216 571.382 167.94 570.493 167.94C569.603 167.94 568.879 167.216 568.879 166.327C568.879 165.437 569.603 164.713 570.493 164.713C571.382 164.713 572.102 165.437 572.102 166.327Z" fill="#6583C4"/>
<path d="M581.273 166.327C581.273 167.216 580.553 167.94 579.664 167.94C578.774 167.94 578.05 167.216 578.05 166.327C578.05 165.437 578.774 164.713 579.664 164.713C580.553 164.713 581.273 165.437 581.273 166.327Z" fill="#6583C4"/>
<path d="M590.444 166.327C590.444 167.216 589.72 167.94 588.831 167.94C587.941 167.94 587.217 167.216 587.217 166.327C587.217 165.437 587.936 164.713 588.831 164.713C589.725 164.713 590.444 165.437 590.444 166.327Z" fill="#6583C4"/>
<path d="M599.61 166.327C599.61 167.216 598.886 167.94 598.001 167.94C597.116 167.94 596.388 167.216 596.388 166.327C596.388 165.437 597.112 164.713 598.001 164.713C598.891 164.713 599.61 165.437 599.61 166.327Z" fill="#6583C4"/>
<path d="M553.764 176.36C553.764 177.249 553.044 177.969 552.15 177.969C551.255 177.969 550.536 177.249 550.536 176.36C550.536 175.47 551.26 174.746 552.15 174.746C553.04 174.746 553.764 175.465 553.764 176.36Z" fill="#6583C4"/>
<path d="M562.935 176.36C562.935 177.249 562.216 177.969 561.322 177.969C560.427 177.969 559.708 177.249 559.708 176.36C559.708 175.47 560.432 174.746 561.322 174.746C562.211 174.746 562.935 175.465 562.935 176.36Z" fill="#6583C4"/>
<path d="M572.102 176.36C572.102 177.249 571.382 177.969 570.493 177.969C569.603 177.969 568.879 177.249 568.879 176.36C568.879 175.47 569.603 174.746 570.493 174.746C571.382 174.746 572.102 175.465 572.102 176.36Z" fill="#6583C4"/>
<path d="M581.273 176.36C581.273 177.249 580.553 177.969 579.664 177.969C578.774 177.969 578.05 177.249 578.05 176.36C578.05 175.47 578.774 174.746 579.664 174.746C580.553 174.746 581.273 175.465 581.273 176.36Z" fill="#6583C4"/>
<path d="M590.444 176.36C590.444 177.249 589.72 177.969 588.831 177.969C587.941 177.969 587.217 177.249 587.217 176.36C587.217 175.47 587.936 174.746 588.831 174.746C589.725 174.746 590.444 175.465 590.444 176.36Z" fill="#6583C4"/>
<path d="M599.61 176.36C599.61 177.249 598.886 177.969 598.001 177.969C597.116 177.969 596.388 177.249 596.388 176.36C596.388 175.47 597.112 174.746 598.001 174.746C598.891 174.746 599.61 175.465 599.61 176.36Z" fill="#6583C4"/>
<path d="M484.762 392.82C484.762 392.82 472.501 331.295 483.669 335.455C494.837 339.614 496.366 387.127 491.33 393.913" fill="#6583C4"/>
<path d="M484.762 392.82C484.762 392.82 472.501 331.295 483.669 335.455C494.837 339.614 496.366 387.127 491.33 393.913" stroke="#3056A0" stroke-width="1.5" stroke-miterlimit="10"/>
<path d="M483.575 395.086C483.575 395.086 481.393 369.962 469.378 371.273C457.363 372.584 474.839 393.117 477.896 395.086" fill="#BDC9EA"/>
<path d="M483.575 395.086C483.575 395.086 481.393 369.962 469.378 371.273C457.363 372.584 474.839 393.117 477.896 395.086" stroke="#3056A0" stroke-width="1.5" stroke-linecap="round" stroke-linejoin="round"/>
<path d="M469.595 361.004C469.595 361.004 466.321 370.833 475.056 369.087C483.797 367.336 481.256 367.009 481.256 367.009" fill="#BDC9EA"/>
<path d="M469.595 361.004C469.595 361.004 466.321 370.833 475.056 369.087C483.797 367.336 481.256 367.009 481.256 367.009" stroke="#3056A0" stroke-width="1.5" stroke-miterlimit="10"/>
<path d="M486.197 394.864C486.197 394.864 483.357 357.289 479.207 355.761C475.057 354.232 468.067 357.507 469.596 361.004C471.124 364.501 481.393 395.086 481.393 395.086" fill="#E6EFF9"/>
<path d="M486.197 394.864C486.197 394.864 483.357 357.289 479.207 355.761C475.057 354.232 468.067 357.507 469.596 361.004C471.124 364.501 481.393 395.086 481.393 395.086" stroke="#3056A0" stroke-width="1.5" stroke-linecap="round" stroke-linejoin="round"/>
<path d="M511.036 353.627C511.036 353.627 513.885 365.448 508.41 369.39C502.935 373.332 498.775 366.106 498.775 366.106L497.899 353.187" fill="#BDC9EA"/>
<path d="M511.036 353.627C511.036 353.627 513.885 365.448 508.41 369.39C502.935 373.332 498.775 366.106 498.775 366.106L497.899 353.187" stroke="#3056A0" stroke-width="1.5" stroke-miterlimit="10"/>
<path d="M488.486 394.131C488.486 394.131 491.553 344.21 502.281 347.276C513.009 350.343 511.04 356.253 511.04 356.253C511.04 356.253 508.414 353.845 506.881 356.911C505.348 359.978 497.463 395.011 497.463 395.011" fill="#E6EFF9"/>
<path d="M488.486 394.131C488.486 394.131 491.553 344.21 502.281 347.276C513.009 350.343 511.04 356.253 511.04 356.253C511.04 356.253 508.414 353.845 506.881 356.911C505.348 359.978 497.463 395.011 497.463 395.011" stroke="#3056A0" stroke-width="1.5" stroke-linecap="round" stroke-linejoin="round"/>
<path d="M493.318 394.229C493.318 394.229 497.7 369.394 509.555 371.761C521.409 374.122 502.196 393.042 498.973 394.731" fill="#BDC9EA"/>
<path d="M493.318 394.229C493.318 394.229 497.7 369.394 509.555 371.761C521.409 374.122 502.196 393.042 498.973 394.731" stroke="#3056A0" stroke-width="1.5" stroke-miterlimit="10"/>
<path d="M483.451 338.521C483.451 338.521 489.206 374.416 487.232 394.121" stroke="#3056A0" stroke-width="1.5" stroke-linecap="round" stroke-linejoin="round"/>
<path d="M475.132 357.786C475.132 357.786 482.576 383.842 483.234 392.819" stroke="#3056A0" stroke-width="1.5" stroke-linecap="round" stroke-linejoin="round"/>
<path d="M469.217 374.647C469.217 374.647 477.976 387.784 479.287 393.477" stroke="#3056A0" stroke-width="1.5" stroke-linecap="round" stroke-linejoin="round"/>
<path d="M502.717 350.782C502.717 350.782 493.74 377.714 491.331 392.384" stroke="#3056A0" stroke-width="1.5" stroke-linecap="round" stroke-linejoin="round"/>
<path d="M495.6 393.974L495.387 393.856C500.37 384.974 507.369 375.76 507.44 375.67L507.634 375.817C507.563 375.907 500.573 385.111 495.6 393.974Z" stroke="#3056A0" stroke-width="1.5" stroke-linecap="round" stroke-linejoin="round"/>
<path d="M507.539 393.042H471.337V401.139H507.539V393.042Z" fill="#6583C4" stroke="#3056A0" stroke-width="1.5" stroke-miterlimit="10"/>
<path d="M793.828 275.325V270.536H789.995C789.678 268.937 789.049 267.446 788.173 266.135L790.885 263.424L787.497 260.035L784.785 262.747C783.474 261.871 781.988 261.242 780.384 260.925V257.092H775.595V260.925C773.995 261.242 772.505 261.871 771.194 262.747L768.482 260.035L765.094 263.424L767.805 266.135C766.93 267.446 766.301 268.932 765.984 270.536H762.15V275.325H765.984C766.301 276.925 766.93 278.416 767.805 279.726L765.094 282.438L768.482 285.826L771.194 283.115C772.505 283.99 773.991 284.62 775.595 284.937V288.77H780.384V284.937C781.983 284.62 783.474 283.99 784.785 283.115L787.497 285.826L790.885 282.438L788.173 279.726C789.049 278.416 789.678 276.93 789.995 275.325H793.828ZM777.994 279.722C774.246 279.722 771.208 276.683 771.208 272.936C771.208 269.188 774.246 266.149 777.994 266.149C781.742 266.149 784.78 269.188 784.78 272.936C784.78 276.683 781.742 279.722 777.994 279.722Z" fill="#BDC9EA"/>
<path d="M639.839 149.372V146.012H637.151C636.929 144.89 636.489 143.844 635.874 142.926L637.776 141.024L635.4 138.648L633.498 140.551C632.58 139.935 631.534 139.495 630.413 139.273V136.585H627.053V139.273C625.931 139.495 624.885 139.935 623.967 140.551L622.065 138.648L619.689 141.024L621.592 142.926C620.976 143.844 620.536 144.89 620.314 146.012H617.626V149.372H620.314C620.536 150.493 620.976 151.539 621.592 152.457L619.689 154.359L622.065 156.735L623.967 154.833C624.885 155.448 625.931 155.888 627.053 156.11V158.798H630.413V156.11C631.534 155.888 632.58 155.448 633.498 154.833L635.4 156.735L637.776 154.359L635.874 152.457C636.489 151.539 636.929 150.493 637.151 149.372H639.839ZM628.733 152.452C626.106 152.452 623.972 150.323 623.972 147.692C623.972 145.061 626.102 142.931 628.733 142.931C631.364 142.931 633.493 145.061 633.493 147.692C633.493 150.323 631.364 152.452 628.733 152.452Z" fill="#6583C4"/>
<path d="M640.871 368.112C640.871 372.835 637.047 376.658 632.325 376.658H570.786C566.063 376.658 562.239 372.835 562.239 368.112C562.239 363.389 566.063 359.565 570.786 359.565H632.325C637.047 359.565 640.871 363.389 640.871 368.112Z" fill="white" stroke="#3056A0" stroke-width="1.5" stroke-linecap="round" stroke-linejoin="round"/>
<path d="M640.871 318.877C640.871 323.599 637.047 327.423 632.325 327.423H570.786C566.063 327.423 562.239 323.599 562.239 318.877C562.239 314.154 566.063 310.33 570.786 310.33H632.325C637.047 310.33 640.871 314.154 640.871 318.877Z" fill="white" stroke="#3056A0" stroke-width="1.5" stroke-linecap="round" stroke-linejoin="round"/>
<path d="M603.666 321.503C603.666 323.77 601.829 325.606 599.563 325.606H570.019C567.752 325.606 565.916 323.77 565.916 321.503C565.916 319.237 567.752 317.4 570.019 317.4H599.563C601.829 317.4 603.666 319.237 603.666 321.503Z" fill="#BDC9EA"/>
<path d="M605.081 370.185C605.081 372.452 603.244 374.288 600.978 374.288H571.434C569.167 374.288 567.331 372.452 567.331 370.185C567.331 367.918 569.167 366.082 571.434 366.082H600.978C603.244 366.082 605.081 367.918 605.081 370.185Z" fill="#BDC9EA"/>
<path d="M829.936 348.965C816.719 348.965 807.798 348.345 806.61 348.26L807.85 331.337C808.745 331.404 892.265 337.149 936.829 311.769C931.335 307.728 926.21 303.176 921.657 298.249C906.097 281.416 899.505 263.23 904.025 249.606C907.976 237.69 916.48 230.847 927.35 230.823H927.402C944.169 230.823 963.552 247.926 970.632 268.985C975.553 283.626 973.812 297.549 965.975 308.873C978.308 313.908 992.273 316.066 1006.5 312.56C1038.73 304.614 1064.1 269.448 1079.85 210.872L1096.23 215.278C1087.05 249.426 1074.58 276.533 1059.15 295.845C1045.16 313.364 1028.81 324.532 1010.55 329.033C994.487 332.994 977.101 331.555 960.282 324.873C957.821 323.894 955.375 322.805 952.961 321.613C919.357 345.326 862.002 348.97 829.941 348.97L829.936 348.965ZM927.397 247.784H927.379C925.916 247.784 922.495 247.793 920.124 254.944C918.099 261.044 921.643 273.239 934.113 286.726C938.632 291.615 944.301 296.527 950.803 300.819C958.011 291.827 957.036 281.8 954.542 274.384C949.502 259.392 935.816 247.784 927.397 247.784Z" fill="#223580"/>
<path d="M961.03 304.643C984.578 270.987 928.552 218.884 916.504 255.195C903.367 294.8 1034.51 401.825 1083.97 217.886" stroke="#3056A0" stroke-width="3" stroke-linecap="round" stroke-linejoin="round"/>
<path d="M816.724 338.493C816.724 338.493 901.607 344.734 946.351 317.472" stroke="#3056A0" stroke-width="3" stroke-linecap="round" stroke-linejoin="round"/>
<path d="M770.711 374.988L775.557 385.291L765.813 388.064L761.317 377.615" fill="white"/>
<path d="M770.711 374.988L775.557 385.291L765.813 388.064L761.317 377.615" stroke="#3056A0" stroke-width="1.5" stroke-linecap="round" stroke-linejoin="round"/>
<path d="M709.812 381.5L712.537 392.356L702.945 394.831L702.538 382.361" fill="white"/>
<path d="M709.812 381.5L712.537 392.356L702.945 394.831L702.538 382.361" stroke="#3056A0" stroke-width="1.5" stroke-linecap="round" stroke-linejoin="round"/>
<path d="M719.849 252.45C719.849 252.45 732.943 260.334 736.635 271.403C740.321 282.472 744.197 330.978 750.282 339.075C756.368 347.167 776.215 373.625 776.215 373.625L761.015 382.361C761.015 382.361 738.291 351.317 732.943 342.326C727.596 333.335 718.742 292.755 718.742 292.755C718.742 292.755 707.304 324.154 706.755 337.064C706.201 349.973 715.42 384.784 715.42 384.784L700.12 385.238C700.12 385.238 690.523 352.51 689.6 335.587C688.677 318.664 700.485 268.867 700.485 268.867" fill="#223580"/>
<path d="M670.387 280.801C673.108 272.236 674.419 262.246 671.982 251.806C665.063 222.201 656.488 236.313 656.488 244.334C656.488 244.334 659.332 261.091 657.804 277.952C660.08 279.58 664.003 281.222 670.387 280.801Z" fill="#BDC9EA" stroke="#3056A0" stroke-width="1.5" stroke-linecap="round" stroke-linejoin="round"/>
<path d="M657.804 277.952C656.857 288.411 654.226 298.911 648.188 305.48L655.66 307.415C655.66 307.415 665.394 296.517 670.387 280.801C664.003 281.222 660.08 279.58 657.804 277.952Z" fill="white" stroke="#3056A0" stroke-width="1.5" stroke-linecap="round" stroke-linejoin="round"/>
<path d="M654.827 244.06C654.827 244.06 657.595 228.013 674.471 230.227C691.346 232.442 719.844 252.36 719.844 252.36C719.844 252.36 709.883 272.832 701.582 273.111C693.282 273.386 654.822 257.064 654.822 245.167" fill="#223580"/>
<path d="M649.295 306.171L646.115 311.845L639.476 317.377L654.273 318.342L652.892 313.918L654.553 307.278" fill="#BDC9EA"/>
<path d="M649.295 306.171L646.115 311.845L639.476 317.377L654.273 318.342L652.892 313.918L654.553 307.278" stroke="#3056A0" stroke-width="3" stroke-linecap="round" stroke-linejoin="round"/>
<path d="M673.78 259.203C673.78 259.203 666.724 247.561 669.492 240.737C672.256 233.913 674.901 233.464 674.901 233.464C674.901 233.464 662.716 228.287 660.227 238.66C657.737 249.038 666.658 256.089 666.658 256.089L673.78 259.203Z" fill="#BDC9EA"/>
<path d="M676.823 256.553C676.823 256.553 666.45 234.468 683.51 236.124C697.744 237.51 705.742 252.332 703.347 256.113C700.948 259.894 676.828 256.553 676.828 256.553H676.823Z" fill="#BDC9EA"/>
<path d="M767.19 395.999L768.061 394.456L778.718 391.977L780.119 394.778C780.119 394.778 749.43 403.424 748.507 401.19C748.214 400.476 747.968 400.074 747.963 399.69L767.19 395.999Z" fill="#BDC9EA" stroke="#3056A0" stroke-width="1.5" stroke-linecap="round" stroke-linejoin="round"/>
<path d="M767.19 395.999L747.963 399.69C747.954 398.876 746.458 398.242 750.495 394.911C752.686 393.103 757.783 392.19 759.382 390.519C762.113 387.661 763.244 384.4 763.244 384.4C763.244 384.4 768.208 388.778 770.375 387.443C772.543 386.109 775.131 384.798 775.131 384.798L778.718 391.972L768.061 394.452L767.19 395.995V395.999Z" fill="#BDC9EA" stroke="#3056A0" stroke-width="1.5" stroke-linecap="round" stroke-linejoin="round"/>
<path d="M703.286 400.008L704.431 398.654L715.363 398.229L716.21 401.248C716.21 401.248 684.442 403.955 683.955 401.588C683.798 400.831 683.638 400.386 683.704 400.013H703.281L703.286 400.008Z" fill="#BDC9EA" stroke="#3056A0" stroke-width="1.5" stroke-linecap="round" stroke-linejoin="round"/>
<path d="M703.285 400.008H683.708C683.854 399.208 682.506 398.299 687.096 395.791C689.585 394.433 694.762 394.495 696.651 393.155C699.873 390.865 701.596 387.874 701.596 387.874C701.596 387.874 705.647 393.108 708.027 392.209C710.403 391.305 713.195 390.51 713.195 390.51L715.367 398.233L704.435 398.659L703.29 400.012L703.285 400.008Z" fill="#BDC9EA" stroke="#3056A0" stroke-width="1.5" stroke-linecap="round" stroke-linejoin="round"/>
<path d="M659.119 235.76L665.83 236.034C665.83 236.034 668.196 238.978 667.699 242.158C667.216 245.234 665.243 246.895 663.132 247.136C661.022 247.378 659.673 242.745 659.673 242.745" fill="white"/>
<path d="M659.119 235.76L665.83 236.034C665.83 236.034 668.196 238.978 667.699 242.158C667.216 245.234 665.243 246.895 663.132 247.136C661.022 247.378 659.673 242.745 659.673 242.745" stroke="#3056A0" stroke-width="1.5" stroke-linecap="round" stroke-linejoin="round"/>
<path d="M646.806 242.583C646.806 242.583 655.291 259.553 658.977 254.759C662.668 249.966 661.466 236.313 661.466 236.313C661.466 236.313 654.183 235.206 646.801 242.583H646.806Z" fill="white" stroke="#3056A0" stroke-width="1.5" stroke-linecap="round" stroke-linejoin="round"/>
<path d="M656.119 241.291L658.977 242.815C658.977 242.815 658.334 241.201 659.299 240.785C660.269 240.369 662.247 241.571 661.741 243.601L663.677 240.558L661.419 234.794" fill="#223580"/>
<path d="M661.746 234.837C661.746 234.837 661.287 226.489 653.123 227.596C648.372 228.24 638.69 236.498 645.883 243.691C645.883 243.691 657.501 246.09 661.746 234.837Z" fill="#223580"/>
<path d="M696.055 272.094C696.055 272.094 720.587 266.193 719.39 252.45L724.647 256.231C724.647 256.231 722.944 264.006 717.464 268.284C712.428 272.217 705.571 274.347 699.836 274.029L696.055 272.094Z" fill="white" stroke="#3056A0" stroke-width="1.5" stroke-linecap="round" stroke-linejoin="round"/>
<path d="M654.55 273.308L653.098 280.638L672.682 284.519L674.135 277.189L654.55 273.308Z" fill="#BDC9EA" stroke="#3056A0" stroke-width="1.5" stroke-linecap="round" stroke-linejoin="round"/>
<path d="M625.946 280.526C622.004 280.526 618.332 281.222 615.228 282.424C615.18 282.424 615.133 282.419 615.086 282.419C612.994 282.419 610.987 283.721 609.137 286.096C607.481 287.648 606.383 289.442 606.033 291.378C601.21 301.798 598.002 320.292 598.002 341.374C598.002 373.932 605.654 400.324 615.09 400.324C615.98 400.324 623.007 400.727 625.951 400.727C637.02 400.727 645.997 395.256 645.997 388.513V292.745C645.997 286.002 637.02 280.531 625.951 280.531L625.946 280.526Z" fill="white" stroke="#3056A0" stroke-width="1.5" stroke-linecap="round" stroke-linejoin="round"/>
<path d="M654.96 341.365C654.96 373.923 647.308 400.315 637.872 400.315C628.435 400.315 620.783 373.923 620.783 341.365C620.783 308.807 628.435 282.415 637.872 282.415C647.308 282.415 654.96 308.807 654.96 341.365Z" fill="#BDC9EA" stroke="#3056A0" stroke-width="1.5" stroke-miterlimit="10"/>
<path d="M731.357 340.811C731.357 333.637 737.173 327.821 744.352 327.821H805.891C813.065 327.821 818.886 333.637 818.886 340.811C818.886 347.986 813.07 353.802 805.891 353.802H744.352C737.178 353.802 731.357 347.986 731.357 340.811Z" fill="white" stroke="#3056A0" stroke-width="1.5" stroke-linecap="round" stroke-linejoin="round"/>
<path d="M811.03 330.864C810.604 336.676 805.768 341.256 799.848 341.256H746.685C744.352 341.256 742.185 340.542 740.391 339.326C740.372 339.6 740.349 339.875 740.349 340.154C740.349 346.353 745.374 351.379 751.574 351.379H804.736C810.936 351.379 815.961 346.353 815.961 340.154C815.961 336.287 814.007 332.88 811.035 330.864H811.03Z" fill="#BDC9EA"/>
<path d="M704.005 336.027C704.005 322.62 714.87 311.75 728.282 311.75C741.693 311.75 752.554 322.615 752.554 336.027V345.6C752.554 359.011 741.688 369.877 728.282 369.877C714.875 369.877 704.005 359.011 704.005 345.6V336.027Z" fill="white" stroke="#3056A0" stroke-width="1.5" stroke-linecap="round" stroke-linejoin="round"/>
<path d="M738.381 354.928C726.275 354.928 716.47 345.118 716.47 333.013V324.371C716.47 321.357 717.08 318.489 718.178 315.877C711.605 319.658 707.176 326.747 707.176 334.877V343.518C707.176 355.624 716.986 365.434 729.086 365.434C738.177 365.434 745.971 359.902 749.288 352.018C746.075 353.868 742.351 354.928 738.376 354.928H738.381Z" fill="#BDC9EA"/>
<path d="M700.588 294.998H652.04C648.046 294.998 644.25 295.864 640.829 297.402C631.634 317.216 627.394 361.454 640.829 384.221C644.25 385.759 648.041 386.625 652.035 386.625H700.584C715.689 386.625 727.936 374.382 727.936 359.277V322.351C727.936 307.245 715.689 295.003 700.584 295.003L700.588 294.998Z" fill="white" stroke="#3056A0" stroke-width="1.5" stroke-linecap="round" stroke-linejoin="round"/>
<path d="M717.903 369.456H674.276C670.684 369.456 667.277 368.68 664.206 367.299C654.178 350.31 655.11 320.028 660.444 300.048H653.677C650.085 300.048 646.677 300.824 643.601 302.206C635.339 320.013 631.529 359.765 643.601 380.227C646.677 381.609 650.085 382.385 653.672 382.385H697.299C706.669 382.385 714.813 377.142 718.959 369.428C718.608 369.442 718.253 369.456 717.899 369.456H717.903Z" fill="#BDC9EA"/>
<path d="M690.144 277.749C691.214 271.374 691.64 257.135 689.567 250.145C683.888 230.979 675.488 242.829 675.488 249.909C675.488 249.909 676.421 263.372 675.801 278.298C679.109 278.553 684.47 278.7 690.144 277.749Z" fill="#BDC9EA" stroke="#3056A0" stroke-width="1.5" stroke-linecap="round" stroke-linejoin="round"/>
<path d="M675.8 278.293C675.294 290.36 673.732 304.699 666.686 312.366L672.038 313.88C672.038 313.88 686.746 297.961 690.144 277.744C684.469 278.695 679.103 278.549 675.8 278.293Z" fill="white" stroke="#3056A0" stroke-width="1.5" stroke-linecap="round" stroke-linejoin="round"/>
<path d="M692.638 276.921H672.44V285.406H692.638V276.921Z" fill="#BDC9EA" stroke="#3056A0" stroke-width="1.5" stroke-linecap="round" stroke-linejoin="round"/>
<path d="M673.103 312.158L667.296 309.9C667.296 309.9 666.851 309.962 666.416 310.161C665.98 310.359 666.141 311.77 666.141 311.77C666.141 311.77 662.644 314.235 660.993 316.885C659.341 319.535 655.934 321.419 657.283 322.01C658.631 322.607 659.701 320.179 660.254 320.747C660.534 321.031 659.724 323.321 658.447 325.351C657.169 327.386 655.418 329.156 656.45 329.369C658.513 329.8 662.422 323.208 662.422 323.208C662.422 323.208 661.636 325.526 660.661 327.888C659.616 330.424 658.409 333.027 659.616 333.505C660.661 333.917 661.594 331.574 662.824 329.364C664.031 327.202 665.54 325.176 665.54 325.176C665.54 325.176 662.914 333.06 664.078 332.606C665.242 332.156 667.424 325.086 667.911 325.29C668.399 325.493 667.05 330.514 667.902 330.405C668.754 330.297 671.375 321.797 671.375 321.797C671.375 321.797 673.604 317.093 672.667 314.107C672.667 314.107 674.092 312.976 673.093 312.158H673.103Z" fill="#223580"/>
<path d="M737.112 264.825C738.016 266.235 737.604 268.109 736.194 269.008L729.304 273.419C727.894 274.323 726.02 273.911 725.12 272.501L716.134 258.465C715.23 257.055 715.642 255.181 717.052 254.282L723.942 249.871C725.352 248.967 727.226 249.379 728.125 250.789L737.112 264.825Z" fill="#BDC9EA" stroke="#3056A0" stroke-width="1.5" stroke-linecap="round" stroke-linejoin="round"/>
<path d="M720 263C720 263 727.731 262.696 731 257Z" fill="#BDC9EA"/>
<path d="M720 263C720 263 727.731 262.696 731 257" stroke="#3056A0" stroke-width="1.5" stroke-linecap="round" stroke-linejoin="round"/>
<path d="M715.954 210.593C715.954 215.883 711.661 220.176 706.371 220.176H674.428C669.137 220.176 664.845 215.883 664.845 210.593C664.845 205.302 669.137 201.01 674.428 201.01H706.371C711.661 201.01 715.954 205.302 715.954 210.593Z" fill="#223580"/>
<path d="M676.202 210.593H664.845V220.138H676.202V210.593Z" fill="#223580"/>
<path d="M354.231 193.613H307.77C300.07 193.613 293.833 200.726 293.833 209.495C293.833 218.264 300.075 225.376 307.77 225.376H354.231C354.648 225.376 355.055 225.353 355.462 225.31H368.168V209.495C368.168 200.721 361.926 193.613 354.231 193.613Z" fill="#6583C4"/>
<path d="M681.172 211.696C681.956 211.696 682.591 211.06 682.591 210.276C682.591 209.492 681.956 208.856 681.172 208.856C680.388 208.856 679.752 209.492 679.752 210.276C679.752 211.06 680.388 211.696 681.172 211.696Z" fill="white"/>
<path d="M690.399 211.696C691.183 211.696 691.819 211.06 691.819 210.276C691.819 209.492 691.183 208.856 690.399 208.856C689.615 208.856 688.979 209.492 688.979 210.276C688.979 211.06 689.615 211.696 690.399 211.696Z" fill="white"/>
<path d="M699.628 211.696C700.412 211.696 701.047 211.06 701.047 210.276C701.047 209.492 700.412 208.856 699.628 208.856C698.844 208.856 698.208 209.492 698.208 210.276C698.208 211.06 698.844 211.696 699.628 211.696Z" fill="white"/>
<path d="M318.332 212.443H316.676L315.985 216.664H313.936L314.626 212.443H312.341V210.559H314.934L315.388 207.843H313.112V205.959H315.696L316.406 201.677H318.445L317.745 205.959H319.401L320.111 201.677H322.16L321.45 205.959H323.826V207.843H321.138L320.684 210.559H323.041V212.443H320.376L319.685 216.664H317.636L318.327 212.443H318.332ZM316.983 210.564H318.64L319.094 207.848H317.437L316.983 210.564Z" fill="white"/>
<path d="M332.529 212.443H330.873L330.182 216.664H328.133L328.824 212.443H326.538V210.559H329.131L329.586 207.843H327.309V205.959H329.893L330.603 201.677H332.643L331.942 205.959H333.599L334.309 201.677H336.358L335.648 205.959H338.023V207.843H335.335L334.881 210.559H337.238V212.443H334.574L333.883 216.664H331.834L332.524 212.443H332.529ZM331.18 210.564H332.837L333.291 207.848H331.635L331.18 210.564Z" fill="white"/>
<path d="M346.725 212.443H345.069L344.378 216.664H342.329L343.02 212.443H340.734V210.559H343.328L343.782 207.843H341.506V205.959H344.09L344.799 201.677H346.839L346.139 205.959H347.795L348.505 201.677H350.554L349.844 205.959H352.22V207.843H349.532L349.077 210.559H351.434V212.443H348.77L348.079 216.664H346.03L346.721 212.443H346.725ZM345.377 210.564H347.033L347.487 207.848H345.831L345.377 210.564Z" fill="white"/>
</g>
<defs>
<clipPath id="clip0_633_2416">
<rect width="1096" height="427.326" fill="white" transform="translate(0 0.336914)"/>
</clipPath>
</defs>
</svg>
