<svg width="946" height="357" viewBox="0 0 946 357" fill="none" xmlns="http://www.w3.org/2000/svg">
<path d="M526.477 218.392V1.22314H726.013L649.368 109.464L726.013 218.392H526.477Z" fill="#050707"/>
<path d="M489.898 1.29175H384.017V218.392H489.898V1.29175Z" fill="#050707"/>
<path d="M364.528 0.886719H0.123535L130.443 218.393L178.924 137.696L155.137 97.466H162.442L238.731 218.393L364.528 0.886719Z" fill="#050707"/>
<circle cx="837.187" cy="109.809" r="108.586" fill="#050707"/>
<path d="M882.956 354.702L882.962 354.704C885.119 355.148 887.25 355.371 889.355 355.371C892.972 355.371 896.352 355.122 899.49 354.62C902.76 354.107 905.467 353.005 907.549 351.261C909.813 349.418 910.869 346.66 910.869 343.19V320.827C910.869 318.773 910.581 316.907 909.986 315.244C909.46 313.545 908.669 312.052 907.602 310.78C906.599 309.448 905.36 308.378 903.894 307.575C902.444 306.721 900.811 306.103 899.006 305.715C897.196 305.264 895.24 305.042 893.143 305.042C890.052 305.042 886.875 305.389 883.612 306.079C880.983 306.585 878.737 307.301 876.895 308.246C875.739 308.838 875.14 310.038 875.14 311.228C875.14 312.738 876.056 313.899 877.187 314.536C878.31 315.169 879.763 315.361 881.068 314.861C881.81 314.577 882.589 314.332 883.406 314.128L883.413 314.126L883.421 314.124C886.123 313.404 888.654 313.049 891.018 313.049C894.772 313.049 897.506 313.855 899.359 315.327C901.141 316.741 902.123 319.02 902.123 322.398V326.234C901.586 325.987 901.028 325.755 900.449 325.537C898.949 324.887 897.243 324.409 895.341 324.092C893.423 323.772 891.179 323.616 888.615 323.616C885.187 323.616 882.1 324.156 879.375 325.258C876.648 326.323 874.481 328.127 872.892 330.643L872.892 330.643L872.889 330.649C871.34 333.14 870.613 336.394 870.613 340.325C870.613 343.219 871.159 345.711 872.313 347.749L872.323 347.766L872.334 347.783C873.522 349.697 875.05 351.229 876.915 352.361L876.922 352.365L876.928 352.369C878.808 353.471 880.818 354.249 882.956 354.702ZM900.197 333.175C900.839 333.38 901.502 333.376 902.123 333.229V343.559C902.123 344.436 901.907 345.069 901.546 345.535C901.184 346.004 900.604 346.398 899.708 346.663C897.807 347.18 894.899 347.457 890.925 347.457C888.986 347.457 887.076 347.193 885.194 346.664C883.449 346.157 882.008 345.293 880.846 344.079C879.824 342.951 879.266 341.397 879.266 339.309C879.266 336.76 880.186 334.927 881.984 333.657C883.844 332.345 886.597 331.623 890.371 331.623C893.491 331.623 896.319 332.013 898.86 332.781L898.873 332.785L898.887 332.789C899.344 332.913 899.78 333.042 900.197 333.175Z" fill="black" stroke="black" stroke-width="2"/>
<path d="M808.705 352.557L808.712 352.561L808.718 352.565C812.097 354.449 816.06 355.371 820.571 355.371C823.83 355.371 826.826 355.089 829.553 354.519C831.657 354.088 833.625 353.511 835.455 352.784C836.894 352.213 837.742 350.807 837.742 349.331V349.016C837.742 346.122 834.613 344.444 832.133 345.398C830.597 345.989 828.903 346.466 827.05 346.825C825.205 347.122 823.17 347.272 820.941 347.272C816.419 347.272 813.018 345.903 810.597 343.262C808.378 340.72 807.132 337.037 806.986 332.085H834.671C837.919 332.085 840.734 329.446 840.405 326.059C840.126 323.179 839.561 320.494 838.704 318.007C837.349 314.071 835.077 310.912 831.886 308.566C828.707 306.183 824.533 305.042 819.462 305.042C812.947 305.042 807.7 307.129 803.844 311.377L803.844 311.377C800.038 315.577 798.225 321.808 798.225 329.883C798.225 335.404 799.103 340.089 800.909 343.896C802.713 347.697 805.311 350.599 808.705 352.557ZM831.529 323.986H807.425C807.659 322.425 807.982 321.087 808.389 319.968L808.389 319.968L808.392 319.961C809.32 317.35 810.668 315.638 812.37 314.679C814.217 313.673 816.565 313.141 819.462 313.141C823.675 313.141 826.591 314.237 828.429 316.237L828.434 316.242L828.439 316.248C830.071 317.973 831.133 320.516 831.529 323.986Z" fill="black" stroke="black" stroke-width="2"/>
<path d="M746.94 308.054L746.94 308.053L746.932 308.056C746.529 308.199 746.151 308.333 745.798 308.459C743.483 309.288 742.014 311.48 742.014 313.904V349.658C742.014 352.048 743.951 353.985 746.34 353.985C748.73 353.985 750.667 352.048 750.667 349.658V318.01C750.667 316.065 752.066 314.402 753.982 314.069L754.089 314.051C755.478 313.809 756.867 313.628 758.255 313.507L758.276 313.505L758.298 313.503C759.67 313.323 761.075 313.234 762.511 313.234C762.911 313.234 763.312 313.24 763.716 313.253C766.081 313.328 768.224 311.501 768.224 309.024V308.121C768.224 306.766 767.302 305.586 765.988 305.257L765.746 306.225L765.988 305.257C765.418 305.115 764.844 305.042 764.267 305.042C760.999 305.042 757.821 305.357 754.734 305.987L754.734 305.987L754.73 305.988C751.745 306.61 749.146 307.297 746.94 308.054Z" fill="black" stroke="black" stroke-width="2"/>
<path d="M672.992 348.62L672.997 348.626L673.002 348.632C676.758 353.179 682.444 355.371 689.851 355.371C696.856 355.371 702.367 353.131 706.23 348.55C710.125 344.004 712.012 337.802 712.012 330.068C712.012 325.164 711.258 320.84 709.72 317.121C708.168 313.308 705.728 310.337 702.402 308.249C699.053 306.084 694.783 305.042 689.667 305.042C682.742 305.042 677.243 307.115 673.315 311.371L673.315 311.371L673.309 311.377C669.443 315.636 667.598 321.928 667.598 330.068C667.598 337.848 669.354 344.073 672.992 348.62ZM702.024 338.993L702.024 338.993L702.02 339.006C701.215 341.536 699.848 343.55 697.923 345.081C696.063 346.499 693.383 347.272 689.759 347.272C684.608 347.272 681.237 345.686 679.327 342.742C677.304 339.561 676.251 335.362 676.251 330.068C676.251 326.766 676.671 323.857 677.494 321.328C678.36 318.791 679.758 316.808 681.68 315.338C683.542 313.914 686.196 313.141 689.759 313.141C693.27 313.141 695.907 313.857 697.776 315.176L697.776 315.176L697.787 315.184C699.748 316.529 701.165 318.438 702.027 320.965L702.029 320.972C702.907 323.489 703.359 326.514 703.359 330.068C703.359 333.366 702.91 336.337 702.024 338.993Z" fill="black" stroke="black" stroke-width="2"/>
<path d="M597.769 349.658V329.497C599.13 329.935 600.725 329.659 601.874 328.405L603.443 326.692L625.556 352.424C626.407 353.415 627.648 353.985 628.955 353.985C632.799 353.985 634.859 349.463 632.336 346.563L609.401 320.191L630.406 297.267C632.832 294.619 630.954 290.35 627.363 290.35C626.193 290.35 625.077 290.847 624.295 291.717L597.769 321.189V294.677C597.769 292.287 595.832 290.35 593.443 290.35C591.053 290.35 589.116 292.287 589.116 294.677V349.658C589.116 352.048 591.053 353.985 593.443 353.985C595.832 353.985 597.769 352.048 597.769 349.658Z" fill="black" stroke="black" stroke-width="2"/>
<path d="M487.682 306.175L487.682 306.175L487.674 306.177C486.028 306.557 484.385 307.062 482.745 307.693C482.158 307.904 481.576 308.129 480.998 308.366C478.832 309.256 477.566 311.405 477.566 313.661V349.658C477.566 352.048 479.503 353.985 481.893 353.985C484.282 353.985 486.219 352.048 486.219 349.658V317.638C486.219 315.844 487.391 314.309 489.052 313.956C489.894 313.778 490.73 313.625 491.56 313.5C493.547 313.199 495.468 313.049 497.324 313.049C500.023 313.049 502.085 313.411 503.572 314.072L503.586 314.078L503.6 314.084C505.13 314.707 506.185 315.524 506.849 316.495L506.856 316.505L506.863 316.515C507.588 317.519 508.048 318.558 508.264 319.638L508.269 319.661L508.275 319.684C508.566 320.848 508.707 321.937 508.707 322.953V349.658C508.707 352.048 510.644 353.985 513.033 353.985C515.423 353.985 517.36 352.048 517.36 349.658V322.953C517.36 319.272 516.726 316.068 515.415 313.375C514.143 310.635 512.065 308.567 509.23 307.181C506.387 305.729 502.641 305.042 498.064 305.042C496.303 305.042 494.542 305.137 492.782 305.325L492.782 305.325L492.778 305.326C491.079 305.515 489.38 305.798 487.682 306.175Z" fill="black" stroke="black" stroke-width="2"/>
<path d="M438.905 310.201V349.658C438.905 352.048 440.842 353.985 443.232 353.985C445.621 353.985 447.558 352.048 447.558 349.658V310.201C447.558 307.811 445.621 305.874 443.232 305.874C440.842 305.874 438.905 307.811 438.905 310.201ZM443.278 290.35H443.185C440.617 290.35 438.535 292.432 438.535 295C438.535 297.568 440.617 299.65 443.185 299.65H443.278C445.846 299.65 447.928 297.568 447.928 295C447.928 292.432 445.846 290.35 443.278 290.35Z" fill="black" stroke="black" stroke-width="2"/>
<path d="M358.126 307.387C357.857 307.297 357.581 307.208 357.297 307.12C355.478 306.556 353.627 306.085 351.745 305.709C349.855 305.331 348.185 305.135 346.744 305.135C339.458 305.135 333.838 307.297 330.084 311.776L330.083 311.777C326.439 316.136 324.675 322.026 324.675 329.329C324.675 334.7 325.361 339.154 326.782 342.643L326.786 342.654L326.791 342.664C328.254 346.035 330.124 348.703 332.43 350.613L332.442 350.623L332.454 350.633C334.766 352.431 337.228 353.668 339.837 354.322C342.37 355.018 344.797 355.371 347.114 355.371C349.083 355.371 351.168 355.181 353.367 354.805C355.579 354.488 357.673 353.981 359.646 353.281L359.659 353.276L359.672 353.271C361.682 352.493 363.349 351.47 364.639 350.181C366.056 348.763 366.78 347.031 366.78 345.038V290.703C366.78 288.314 364.843 286.376 362.453 286.376C360.063 286.376 358.126 288.314 358.126 290.703V307.387ZM355.228 346.208L355.221 346.21C353.002 346.911 350.337 347.272 347.206 347.272C343.334 347.272 340.553 346.407 338.707 344.832C336.779 343.187 335.467 341.06 334.775 338.412C334.059 335.607 333.698 332.58 333.698 329.329C333.698 326.032 334.148 323.198 335.021 320.808C335.944 318.388 337.336 316.56 339.184 315.272L339.184 315.272L339.189 315.268C341.071 313.94 343.563 313.234 346.744 313.234C348.621 313.234 350.601 313.498 352.686 314.034L352.702 314.038L352.718 314.042C353.917 314.308 355.066 314.668 356.166 315.121C357.369 315.616 358.126 316.888 358.126 318.347V344.391C358.126 344.531 358.067 344.776 357.616 345.123C357.152 345.48 356.381 345.853 355.228 346.208Z" fill="black" stroke="black" stroke-width="2"/>
<path d="M285.322 292.644V349.658C285.322 352.048 287.259 353.985 289.649 353.985C292.038 353.985 293.975 352.048 293.975 349.658V292.644C293.975 290.254 292.038 288.317 289.649 288.317C287.259 288.317 285.322 290.254 285.322 292.644Z" fill="black" stroke="black" stroke-width="2"/>
<path d="M233.338 308.054L233.338 308.053L233.329 308.056C232.927 308.199 232.549 308.333 232.195 308.459C229.881 309.288 228.411 311.48 228.411 313.904V349.658C228.411 352.048 230.348 353.985 232.738 353.985C235.128 353.985 237.065 352.048 237.065 349.658V318.01C237.065 316.065 238.463 314.402 240.379 314.069L240.487 314.051C241.876 313.809 243.264 313.628 244.653 313.507L244.674 313.505L244.695 313.503C246.068 313.323 247.472 313.234 248.909 313.234C249.308 313.234 249.71 313.24 250.113 313.253C252.478 313.328 254.622 311.501 254.622 309.024V308.121C254.622 306.766 253.7 305.586 252.386 305.257L252.144 306.225L252.386 305.257C251.816 305.115 251.242 305.042 250.665 305.042C247.397 305.042 244.219 305.357 241.132 305.987L241.128 305.988C238.142 306.61 235.544 307.297 233.338 308.054Z" fill="black" stroke="black" stroke-width="2"/>
<path d="M158.691 348.62L158.695 348.626L158.7 348.632C162.457 353.179 168.143 355.371 175.55 355.371C182.554 355.371 188.066 353.131 191.929 348.55C195.824 344.004 197.711 337.802 197.711 330.068C197.711 325.164 196.957 320.84 195.418 317.121C193.867 313.308 191.427 310.337 188.1 308.249C184.752 306.084 180.482 305.042 175.365 305.042C168.441 305.042 162.942 307.115 159.014 311.371L159.014 311.371L159.008 311.377C155.142 315.636 153.297 321.928 153.297 330.068C153.297 337.848 155.053 344.073 158.691 348.62ZM187.723 338.993L187.723 338.993L187.719 339.006C186.914 341.536 185.547 343.55 183.622 345.081C181.762 346.499 179.082 347.272 175.458 347.272C170.307 347.272 166.936 345.686 165.026 342.742C163.003 339.561 161.95 335.362 161.95 330.068C161.95 326.766 162.37 323.857 163.192 321.328C164.058 318.791 165.457 316.808 167.379 315.338C169.241 313.914 171.895 313.141 175.458 313.141C178.969 313.141 181.606 313.857 183.475 315.176L183.475 315.176L183.486 315.184C185.447 316.529 186.864 318.438 187.725 320.965L187.728 320.972C188.606 323.489 189.058 326.514 189.058 330.068C189.058 333.366 188.608 336.337 187.723 338.993Z" fill="black" stroke="black" stroke-width="2"/>
<path d="M64.6284 350.02L78.8125 305.192L93.0098 350.062C93.7488 352.398 95.9161 353.985 98.3659 353.985C100.805 353.985 102.965 352.412 103.713 350.091L121.146 296.008C122.047 293.213 119.962 290.35 117.025 290.35C115.129 290.35 113.454 291.583 112.891 293.394L98.2356 340.505L84.0667 294.23C83.3608 291.924 81.2322 290.35 78.821 290.35C76.3998 290.35 74.2649 291.937 73.5674 294.256L59.6368 340.564L44.7413 293.382C44.1715 291.577 42.4974 290.35 40.6047 290.35C37.6644 290.35 35.576 293.213 36.4742 296.013L53.8088 350.042C54.5626 352.391 56.7476 353.985 59.2151 353.985C61.691 353.985 63.8814 352.381 64.6284 350.02Z" fill="black" stroke="black" stroke-width="2"/>
</svg>
